<?xml version="1.0" encoding="utf-8"?>
<!-- Generator: Adobe Illustrator 24.3.0, SVG Export Plug-In . SVG Version: 6.00 Build 0)  -->
<svg version="1.1" id="Layer_1" xmlns="http://www.w3.org/2000/svg" xmlns:xlink="http://www.w3.org/1999/xlink" x="0px" y="0px"
	 viewBox="0 0 410.1 419.1" style="enable-background:new 0 0 410.1 419.1;" xml:space="preserve">
<style type="text/css">
	.st0{fill:url(#SVGID_1_);}
	.st1{fill:#FFFFFF;stroke:#1D1D1B;stroke-miterlimit:10;}
	.st2{fill:#1D1D1B;}
	.st3{fill:#DDCB80;}
	.st4{fill:#C69E30;}
	.st5{fill:#592F1E;}
	.st6{fill:#FCA626;}
	.st7{fill:#FCFBFA;}
	.st8{fill:#F3A230;}
	.st9{fill:#E1314C;}
	.st10{fill:#F3A532;}
	.st11{fill:#F1ECE2;}
	.st12{fill:#F8F3CB;}
	.st13{fill:#F5F2CD;}
	.st14{fill:#D4354A;}
	.st15{fill:#E49E3E;}
	.st16{fill:#70201C;}
	.st17{fill:#6A2F0A;}
	.st18{fill:#F4F3ED;}
	.st19{fill:#542B1C;}
	.st20{fill:#EEAD44;}
	.st21{fill:#F6E8AB;}
	.st22{fill:#DD7A1B;}
	.st23{fill:#572C1F;}
	.st24{fill:#5B2C15;}
	.st25{fill:#FAF9EE;}
	.st26{fill:#E8B24C;}
	.st27{fill:#E8BB69;}
	.st28{fill:#EEE1BF;}
	.st29{fill:#E92E4C;}
	.st30{fill:#BD1D34;}
	.st31{fill:#C6762E;}
	.st32{fill:#F06C7C;}
	.st33{fill:#582B19;}
	.st34{fill:#FCFAFA;}
	.st35{fill:#FFFFFF;}
	.st36{fill:#15003E;}
	.st37{fill:#25E899;}
	.st38{fill:#EFF4EE;}
	.st39{fill:#0FCE7C;}
	.st40{fill:none;stroke:#1D1D1B;stroke-width:4;stroke-linecap:round;stroke-linejoin:round;stroke-miterlimit:10;}
	.st41{fill:none;stroke:#1D1D1B;stroke-width:4;stroke-linecap:round;stroke-miterlimit:10;}
</style>
<g>
	<g>
		<linearGradient id="SVGID_1_" gradientUnits="userSpaceOnUse" x1="90.217" y1="326.9795" x2="299.5844" y2="95.4048">
			<stop  offset="0.419" style="stop-color:#BFEFFF"/>
			<stop  offset="0.4458" style="stop-color:#BFEFFF"/>
			<stop  offset="0.4498" style="stop-color:#C1EFFD"/>
			<stop  offset="0.4982" style="stop-color:#D7F3E9"/>
			<stop  offset="0.5549" style="stop-color:#E8F5DA"/>
			<stop  offset="0.6256" style="stop-color:#F3F7CF"/>
			<stop  offset="0.7247" style="stop-color:#FAF8C9"/>
			<stop  offset="1" style="stop-color:#FCF8C7"/>
		</linearGradient>
		<circle class="st0" cx="203.9" cy="201.3" r="181.2"/>
		<g>
			<circle class="st2" cx="267.4" cy="299.9" r="1.1"/>
			<circle class="st2" cx="262.2" cy="281.1" r="1.1"/>
			<circle class="st2" cx="304.2" cy="289.8" r="1.1"/>
			<g>
				<g>
					<polygon class="st3" points="262.2,258.7 273.8,297.2 290.5,303.7 301.1,291.2 289.5,253.1 277.7,259.5 					"/>
					<path class="st2" d="M290.5,304.2c-0.1,0-0.1,0-0.2,0l-16.7-6.5c-0.2-0.1-0.3-0.2-0.3-0.3l-11.6-38.6c0-0.2,0-0.3,0.1-0.5
						c0.1-0.1,0.3-0.2,0.4-0.2l15.4,0.8l11.7-6.3c0.1-0.1,0.3-0.1,0.4,0c0.1,0.1,0.3,0.2,0.3,0.3l11.6,38.1c0.1,0.2,0,0.4-0.1,0.5
						l-10.7,12.5C290.8,304.2,290.6,304.2,290.5,304.2z M274.2,296.9l16.1,6.2l10.2-12l-11.4-37.2L278,260c-0.1,0-0.2,0.1-0.3,0.1
						l-14.8-0.8L274.2,296.9z"/>
				</g>
				<path class="st2" d="M268.5,297.4l-1-0.2c9.3-43.9,9.8-53.1,9.2-54.5c-1,0.8-4.2,6.7-13.8,36.1l-1-0.3
					c12.4-37.6,14.1-37.2,15.1-36.9C278.1,241.9,280.1,242.4,268.5,297.4z"/>
				<g>
					<path class="st2" d="M303,289.4c-30.7-45.1-28.8-46.6-27.8-47.3c0.9-0.7,2.5-1.9,27.8,26.7l-0.8,0.7
						c-21.6-24.4-25.7-26.7-26.4-26.5c-0.4,1,2.5,8.4,28,45.9L303,289.4z"/>
					
						<ellipse transform="matrix(0.9851 -0.1719 0.1719 0.9851 -41.7032 55.9512)" class="st2" cx="302.2" cy="268.8" rx="1.2" ry="1.1"/>
				</g>
				<path class="st2" d="M277.7,260C277.7,260,277.7,260,277.7,260l-15.6-0.8c-0.3,0-0.5-0.3-0.5-0.6c0-0.3,0.3-0.5,0.6-0.5
					l15.4,0.8l11.7-6.3c0.3-0.1,0.6,0,0.7,0.2c0.1,0.3,0,0.6-0.2,0.7L278,260C277.9,260,277.8,260,277.7,260z"/>
			</g>
			<g>
				<polygon class="st4" points="324.6,327.5 271,340.8 258.8,286 262.2,258.7 273.8,297.2 290.3,303.7 290.5,303.7 290.5,303.8 
					290.6,303.7 301.1,291.2 289.5,253.1 303.6,269 				"/>
				<path class="st2" d="M271,341.3c-0.1,0-0.2,0-0.3-0.1c-0.1-0.1-0.2-0.2-0.2-0.3l-12.2-54.8c0-0.1,0-0.1,0-0.2l3.3-27.3
					c0-0.2,0.2-0.4,0.5-0.5c0.3,0,0.5,0.1,0.5,0.4l11.5,38.3l16.2,6.3l10.2-12.1L289,253.3c-0.1-0.2,0-0.5,0.2-0.6
					c0.2-0.1,0.5-0.1,0.6,0.1l14.1,15.9c0,0.1,0.1,0.1,0.1,0.2l21,58.4c0.1,0.1,0,0.3,0,0.4c-0.1,0.1-0.2,0.2-0.3,0.3l-53.6,13.3
					C271.1,341.3,271,341.3,271,341.3z M259.4,286l12,54.2l52.5-13.1l-20.7-57.8l-12.4-14l10.9,35.8c0.1,0.2,0,0.4-0.1,0.5L291,304
					c0,0-0.1,0.1-0.1,0.1l-0.2,0.1c-0.1,0.1-0.3,0.1-0.4,0c0,0,0,0-0.1,0l0,0c-0.1,0-0.1,0-0.2,0l-16.5-6.5
					c-0.2-0.1-0.3-0.2-0.3-0.3l-10.9-36.2L259.4,286z"/>
			</g>
			<g>
				<path class="st5" d="M293.6,308.5c-3.4,0.6-6.7,0-9.8-1.8c-1.3-0.7-2.5-1.6-3.5-2.7c-0.1-0.1-0.3-0.1-0.4-0.1
					c-1.7,1.1-3.5,1.2-5.4,0.7c-0.1,0-0.1,0-0.3,0c0.4-0.9,0.8-1.8,1.3-2.8c-1.1-0.5-2.1-1.3-2.8-2.5c0.8-0.5,1.7-1,2.6-1.6
					c0,0,0-0.1-0.1-0.3c-0.8-2.4-0.8-4.9-0.2-7.3c0.3-1.2,0.7-2.4,1-3.6c0.1-0.2,0.1-0.5,0-0.7c-0.8-2.7-0.9-5.3-0.2-8
					c0-0.1,0-0.1,0.1-0.2c0.6,0.2,1.3,0.3,1.9,0.5c1.3,0.4,2.6,1,3.7,1.8c0.2,0.1,0.4,0.2,0.7,0.1c2.2-1,4.6-1.3,7-1
					c0.3,0,0.5,0,0.7-0.2c1.3-1.5,2.8-2.7,4.5-3.6c0.1,0,0.2-0.1,0.4-0.2c0.4,0.8,0.8,1.6,1.1,2.5c0.7,1.8,1,3.7,0.9,5.6
					c0,0.2,0.1,0.4,0.2,0.5c1,1.3,1.8,2.8,2.5,4.3c1.2,2.8,1.7,5.7,0.6,8.7c-0.2,0.6-0.6,1.3-0.9,1.8c-0.6,1-1.2,2.1-1.8,3
					c-0.7,0.9-1.5,1.8-2.2,2.7c-0.7,0.9-1.3,1.9-1.4,3.1C293.6,307.8,293.6,308.1,293.6,308.5z M276.5,300.1c0-0.1-0.1-0.1-0.1-0.2
					c0,0,0,0,0-0.1c-0.2-0.4-0.3-0.8-0.5-1.2c0,0-0.1,0-0.2,0c-0.1,0-0.1,0-0.2,0c-0.1-0.1-0.2-0.2-0.2-0.2c-0.3,0.2-0.7,0.5-1,0.8
					c-0.1,0-0.1,0.1-0.2,0.1c-0.1,0.1-0.3,0.1-0.3,0.2c0,0.2-0.1,0.5,0.3,0.5l0,0c0.2,0.3,0.3,0.7,0.7,0.6l0,0c0,0,0,0,0,0
					c0.1,0.1,0.2,0.1,0.3,0.2c0,0,0.1,0,0.1,0.1c0,0.5,0.3,0.3,0.5,0.3c0,0,0,0,0.1,0c0,0,0.1,0,0.1,0.1c0,0,0,0,0,0
					c0.1,0,0.1,0.1,0.2,0.1c0.1,0,0.2,0,0.2,0c0.2,0.1,0.3,0,0.3-0.2l0,0c0.1-0.1,0.2-0.2,0.3-0.2c0,0,0,0,0-0.1
					c0,0,0.1-0.1,0.1-0.1c0,0-0.1-0.1-0.1-0.1c0-0.1-0.1-0.1-0.1-0.2C276.6,300.2,276.6,300.1,276.5,300.1
					C276.5,300.1,276.5,300.1,276.5,300.1z M289.7,280.1c0,0-0.1,0-0.1,0c-0.2-0.1-0.4-0.1-0.6-0.2c0,0,0,0,0,0
					c-0.1,0-0.1-0.1-0.2-0.1c-1,0-2,0-3.1,0c-0.2-0.3-0.3-0.2-0.4,0.1c-0.2,0-0.4,0.1-0.6,0.1c-0.2,0-0.3,0-0.5,0.1
					c-0.4,0.1-0.7,0.1-1.1,0.2c-0.5,0.2-1,0.4-1.6,0.6c-0.1-0.4-0.3-0.5-0.6-0.4l0,0c-0.1,0-0.2-0.1-0.3-0.1c0,0-0.1,0-0.1,0
					c0,0,0,0,0,0c0,0,0-0.1-0.1-0.1c-0.2-0.4-0.4-0.5-0.8-0.4c-0.2,0-0.3-0.1-0.5-0.1c0,0,0,0,0,0c-0.9-0.3-1.8-0.7-2.6-1
					c-0.1,0-0.3,0.1-0.3,0.2c-0.1,0.6-0.1,1.3-0.2,1.9c0,0,0,0.1,0,0.1c0,0.3,0,0.7,0,1c0,0.1,0,0.2,0,0.3c0.1,0.8,0.2,1.6,0.3,2.5
					c0.1,0.4,0.2,0.8,0.3,1.3c0,0.2,0.1,0.5,0,0.7c-0.2,0.6-0.4,1.1-0.5,1.6c-0.8,2.5-1.2,5.1-0.6,7.8c0.1,0.7,0.5,1.3,0.7,1.9
					c0,0.1,0.1,0.2,0.1,0.3c0.5,0.7,0.9,1.6,1.5,2.2c1.7,1.8,3.7,2.7,6,3.1c1.1,0.2,2.3,0.4,3.4,0.2c0.2,0,0.4,0,0.6,0
					c0.3,0,0.5,0,0.8-0.1c0.2,0,0.3,0,0.5-0.1c0.3-0.1,0.6-0.1,0.9-0.2c0.2,0,0.3-0.1,0.5-0.1c0.1,0,0.2,0,0.2,0c0.1,0,0.1,0,0.2,0
					c0.1,0,0.1,0,0.2-0.1c0.2,0,0.3,0,0.5-0.1c0,0,0,0,0,0c0.1-0.1,0.3-0.1,0.4-0.2c0.8-0.4,1.7-0.8,2.5-1.2c0.1,0,0.1-0.1,0.2-0.1
					c0,0,0.1,0,0.1,0c0.1,0,0.1-0.1,0.2-0.1l0,0c0,0,0,0,0,0c0.1,0,0.1-0.1,0.2-0.1l0,0c0.2-0.1,0.4-0.3,0.5-0.4l0,0
					c0.1-0.1,0.2-0.1,0.3-0.2c0.1,0,0.1-0.1,0.2-0.1c0.4-0.4,0.8-0.7,1.2-1.1c0.1-0.2,0.3-0.3,0.4-0.5c0.1-0.1,0.2-0.3,0.3-0.4
					c0.1-0.1,0.1-0.2,0.2-0.3c0.1-0.1,0.1-0.2,0.2-0.2c0-0.1,0.1-0.1,0.1-0.2c0.1-0.1,0.1-0.3,0.2-0.4c0.1-0.1,0.1-0.2,0.2-0.3
					c0.1-0.1,0.1-0.3,0.2-0.4c0.1-0.2,0.2-0.5,0.2-0.7c0.1-0.2,0.1-0.4,0.2-0.6c0-0.1,0-0.2,0-0.4c0-0.1,0.1-0.2,0.1-0.3
					c0-0.4,0.1-0.8,0.1-1.2c0-0.4,0-0.7,0-1.1c-0.1-1.5-0.5-2.9-1.1-4.3c-0.2-0.5-0.6-1-0.8-1.5c0-0.1-0.1-0.2-0.1-0.3
					c-0.1-0.1-0.1-0.2-0.2-0.3c-0.4-0.6-0.8-1.3-1.2-1.9c-0.4-0.5-0.4-0.9-0.3-1.4c0-0.1,0-0.2,0-0.4c0-0.1,0-0.2,0-0.3
					c0-0.1,0.1-0.2,0.1-0.3c-0.1-0.8-0.2-1.7-0.3-2.5c0-0.1-0.1-0.2-0.2-0.3c0-0.1,0-0.2,0-0.3c0-0.1,0-0.3,0-0.4c0,0,0,0-0.1,0
					c0,0.1,0,0.3,0,0.4c-0.1-0.1-0.1-0.2-0.2-0.3c-0.1-0.4-0.3-0.9-0.4-1.3c-0.1-0.3-0.3-0.5-0.4-0.8c-0.1,0-0.3-0.1-0.3-0.1
					c-1.4,0.7-2.5,1.8-3.6,2.9c0,0-0.1,0.1-0.1,0.1c-0.2,0.2-0.4,0.5-0.6,0.7C289.8,280.1,289.7,280.1,289.7,280.1z M284.4,306.2
					c0.1,0.1,0.2,0.1,0.2,0.2l0,0l0,0c0.4,0.4,0.9,0.8,1.5,0.7l0,0l0,0c0.2,0.3,0.5,0.4,0.9,0.3l0,0l0,0c0.3,0.1,0.5,0.2,0.8,0.4
					c0.4,0.2,0.8,0,1.2,0.4c0.2,0.2,0.4,0.1,0.5-0.3c0.1,0,0.2,0,0.2,0c0,0.1,0.1,0.2,0.1,0.2c0.4,0,0.7-0.1,1.1-0.1
					c0.1,0,0.1,0,0.2,0c0,0,0.1,0.1,0.1,0.1c0.5,0,1,0,1.5-0.1c0.2,0,0.3-0.3,0.1-0.5c0-0.1,0-0.1,0-0.2c0-0.1,0-0.2,0-0.3l0,0
					c0-0.1,0.1-0.1,0.1-0.2c0.3-0.7,0.6-1.3,0.9-2c0,0,0-0.1,0-0.2c0,0,0,0,0-0.1c0.3,0,0.4-0.2,0.3-0.5c0.1-0.1,0.1-0.1,0.2-0.2
					c0.3,0,0.3-0.2,0.3-0.5c0.3-0.4,0.6-0.8,0.9-1.1c0,0,0,0-0.1-0.1c-0.2,0.1-0.4,0.2-0.5,0.2c-0.2,0.1-0.4-0.1-0.5,0.3
					c0,0-0.1,0.1-0.1,0.1c-0.3,0-0.7-0.1-1.1-0.1c0.1,0.1,0.2,0.2,0.2,0.2c-0.1,0.2-0.2,0.3-0.2,0.4c-0.1,0-0.2,0-0.2,0.1
					c-0.3-0.1-0.6-0.1-0.7,0.3c0,0,0,0-0.1,0c-0.3,0-0.6,0.1-0.8,0.1c-0.1,0-0.2,0.1-0.3,0.2c-0.2,0-0.3,0.1-0.5,0.1
					c-0.1,0-0.2-0.1-0.3,0c-1.1,0.1-2.1,0.3-3.2,0.4c-0.1,0-0.2,0.1-0.2,0.1c-0.2,0-0.4,0-0.6,0c0-0.1-0.1-0.2-0.1-0.2
					c-0.4-0.1-0.8-0.1-1.2-0.1c-0.2,0-0.3,0.1-0.5,0.1c-0.1,0-0.2,0-0.2,0c-0.2-0.4-0.4-0.1-0.7-0.1c-0.1-0.1-0.1-0.2-0.2-0.2
					c-0.4,0-0.7,0-1.1-0.1c-0.1,0-0.1,0-0.2,0c-0.1,0-0.2-0.1-0.3-0.1c-0.3-0.1-0.6-0.2-1-0.3c0,0.1,0,0.1-0.1,0.2
					c0.3,0.2,0.5,0.4,0.8,0.6c0.1,0.1,0.1,0.2,0.2,0.2c0.6,0.4,1.1,0.8,1.7,1.2C283.9,306.1,284.1,306.2,284.4,306.2
					C284.4,306.1,284.4,306.1,284.4,306.2z M275.5,304c1,0.3,3.7-0.1,4-0.9c-0.5-0.5-1.1-1.1-1.7-1.6c-0.2-0.2-0.4-0.2-0.7,0
					c-0.3,0.3-0.6,0.6-0.9,1C275.9,302.9,275.5,303.4,275.5,304z"/>
				<path class="st6" d="M290.4,279.4C290.5,279.4,290.5,279.3,290.4,279.4c0.7-0.2,0.8-0.9,1.5-1.1c0.2,0.1,0.4,0.1,0.4-0.3
					c0-0.1,0.1-0.3,0.2-0.4c0.1-0.1,0.3-0.1,0.4,0c0.2,0.1,0.4,0.2,0.6,0.3c0-0.4,0-0.6,0-0.9c0.3,0.1,0.5,0.1,0.7,0.2
					c0.1,0.4,0.2,0.7,0.2,1.1c-0.1,0-0.1,0-0.2,0c-0.1-0.3-0.2-0.6-0.3-0.9c-0.5,0.3-0.1,0.7-0.3,1c-0.1,0-0.2,0-0.2,0.1
					c-0.2,0.2-0.4,0.4-0.6,0c0,0-0.2,0-0.2,0c-0.3,0.1-0.6,0.1-0.9,0.2c-0.1,0-0.2,0.1-0.3,0.1c0.4,0.1,0.7,0.2,1.1,0.2
					c0.1,0,0.1,0.2,0.2,0.2c0,0,0,0,0,0c-0.4,0.1-0.9,0.3-1.3,0.4c0,0.2,0,0.3,0.1,0.4c-0.2,0-0.4,0.1-0.6,0.1
					c0,0.2,0.1,0.3,0.1,0.4c-0.1,0.1-0.2,0.1-0.4,0.2c0.2,0.2,0.4,0.3,0.6,0.5c0,0.3-0.1,0.5-0.1,0.7c-0.1,0-0.2,0.1-0.3,0.1
					c0,0,0,0.1,0.1,0.1c0.1-0.1,0.1-0.1,0.2-0.2c0.1,0,0.3-0.1,0.4-0.1c0,0-0.1-0.1-0.1-0.1c0.1-0.2,0.2-0.4,0.3-0.6l0,0l0,0
					c0,0.4,0.6,0.3,0.5,0.7c0,0,0,0,0.1,0c0.1-0.1,0.2-0.1,0.2-0.2c0.6,0.4,1.2,0.8,1.8,1.3c0-0.2,0-0.3,0-0.5c0,0,0,0,0-0.1
					c0.2-0.3,0.2-0.7,0.1-1.1c-0.1-0.4-0.1-0.8-0.1-1.2c0,0,0.1,0,0.1,0c0.1,0.7,0.2,1.5,0.3,2.2c0,0.2,0.2,0.3,0.3,0.5
					c0,0.1,0,0.2,0,0.3c0,0.1,0,0.3,0,0.4c0,0.2,0,0.3,0,0.4c0.2,0.4,0.4,0.8,0.7,1.1c0.4,0.6,0.7,1.2,1.1,1.7c0,0,0.1,0,0.1,0
					c0,0.2,0.1,0.3,0.1,0.5c0.2,0.4,0.4,0.7,0.5,1.1c0.2,0.7,0.4,1.5,0.6,2.3c0,0.1,0.1,0.2,0.1,0.2c0.1,0.4,0.3,0.8,0.4,1.2
					c0.1,0.4,0.1,0.8,0.2,1.1c0,0.1,0,0.3,0,0.4c-0.1,0.2-0.3,0.3-0.3,0.5c0,0.2-0.1,0.3-0.3,0.3c-0.1,0-0.1-0.1-0.2-0.1
					c0,0.1-0.1,0.2-0.1,0.3c-0.4,0.1-0.8,0.1-1.3,0.2c-0.2-0.1-0.2,0-0.2,0.2c-0.4,0-0.8,0.3-1.1,0.5c-0.2,0.1-0.5,0.1-0.7,0.2
					c-0.2,0-0.4,0-0.6,0c0,0,0-0.1,0-0.1c-0.1-0.1-0.1-0.2-0.2-0.2c-0.3-0.3-0.5-0.6-0.8-0.9c-0.4-0.3-0.8-0.5-1.2-0.8
					c0,0-0.1,0-0.1,0c0,0,0,0,0,0c-0.6-0.5-1.3-0.8-2.1-0.9c-0.3-0.1-0.6-0.3-0.9-0.3c-1-0.2-2,0.1-3,0.6c-0.4,0.2-0.7,0.4-1.1,0.6
					c-0.1,0-0.1,0.2-0.1,0.3c0,0,0,0,0,0c-0.3,0-0.6,0.1-0.6,0.5c-0.2,0.2-0.5,0.5-0.7,0.7c-0.4,0.1-1,1-1,1.5l0,0
					c0,0,0,0.1-0.1,0.1c-0.1,0.2-0.2,0.4-0.3,0.5c-0.1,0-0.3,0-0.3,0.1c-0.3,0.4-0.6,0.1-0.9,0c-0.3-0.1-0.7-0.1-1-0.2
					c-0.8-1.6-1.1-3.3-1.2-5.1c-0.1-1.9,0.3-3.8,0.8-5.7c0.1-0.3,0.1-0.5-0.1-0.8c-0.2-0.3-0.4-0.7-0.6-1.1c0.1-0.2,0.2-0.4,0.2-0.7
					l0,0c0.1-0.1,0.1-0.1,0.2-0.2l0,0c0.3,0,0.5-0.1,0.5-0.5l0,0c0.5,0.1,0.7-0.4,0.9-0.7c0.3-0.3,0.3-0.6-0.1-0.8
					c-0.3-0.2-0.7-0.4-1-0.5c-0.3-0.1-0.5-0.1-0.8-0.2c0,0,0,0,0,0c-0.2-0.4-0.6-0.3-0.9-0.5c0,0.1-0.1,0.2-0.1,0.3l0,0
					c-0.1,0-0.2,0-0.3,0c-0.1-0.3-0.1-0.6-0.2-0.9c0-0.1,0-0.2,0-0.3c0-0.1-0.1-0.2-0.1-0.3c-0.1,0.1-0.2,0.1-0.3,0.2
					c-0.1-0.3-0.3-0.6,0.1-0.7c0.1,0.3,0.3,0.5,0.6,0.4c0.5,0.1,0.9,0.2,1.4,0.4c0.2,0,0.3,0.1,0.5,0.1c0,0,0,0,0,0
					c0.1,0.3,0.4,0.5,0.7,0.3l0,0c0.1,0.3,0.3,0.4,0.6,0.4c0,0,0,0,0,0c0,0.1-0.1,0.1-0.1,0.2c0.2,0,0.4,0.1,0.6,0.1l0,0
					c0.3,0.7,0.4,0.8,0.9,0.6c0.2-0.1,0.6-0.1,0.6-0.5l0,0c0.5-0.1,1-0.3,1.6-0.4c0.1,0.4,0.5,0.4,0.9,0.1c-0.1-0.1-0.2-0.1-0.3-0.2
					c1.4-0.1,2.8-0.3,4.2-0.4c0,0,0,0,0,0c0.1,0.4,0.3,0.2,0.5,0.2c0.1,0,0.2,0.1,0.3,0.1c0.1,0,0.1,0,0.2,0c0.1,0,0.2,0.1,0.3,0.1
					c0.2-0.1,0.4-0.2,0.6-0.3c0,0,0-0.2,0-0.3c-0.2,0.1-0.4,0.1-0.5,0.1c0-0.1,0.1-0.1,0.1-0.2c0,0,0-0.1,0.1-0.1
					C290.4,279.6,290.4,279.5,290.4,279.4z M281.9,287.7c0.1,0.1,0.2,0.1,0.4,0.2c0.2,0,0.3-0.1,0.5-0.1c0,0,0,0,0.1,0
					c0.1,0.3,0.7,0.6,1,0.5c0.2-0.2,0.4-0.5,0.5-0.8c0-0.1,0-0.3,0-0.4c0-0.6-0.5-1.2-1-1.4c-0.9-0.2-1.7-0.4-2.4,0.5
					c-0.3,0.4-0.4,0.8-0.1,1.2c0.1,0.2,0.5,0.2,0.7,0.3C281.6,287.7,281.7,287.7,281.9,287.7C281.8,287.7,281.8,287.7,281.9,287.7z
					 M291.6,287.4L291.6,287.4c-0.2,0.1-0.5,0.1-0.5,0.3c-0.4,0.8-0.5,1.7-0.2,2.6c0.2,0.7,0.9,1.5,1.5,1.5c0.3,0,0.6,0,0.8-0.1
					c0.5-0.1,0.9-0.2,1.1-0.8c0.3-0.8,0.4-1.5,0.1-2.3c-0.2-0.4-0.4-0.8-0.7-1.3c-0.1-0.5-0.2-0.6-0.7-0.5c-0.4,0-0.8,0-1.2,0
					c-0.1,0-0.2-0.1-0.3-0.1c0,0.1,0,0.2,0,0.4C291.5,287.2,291.5,287.3,291.6,287.4z M289.2,285.5c-0.1,0.1-0.2,0.2-0.2,0.3
					c0,0.3,0,0.5,0.1,0.8c0.1,0.6,0.5,0.8,1,0.8c0.3,0,0.4-0.3,0.6-0.5c0.4-0.3,0.7-0.7,1.3-0.7c0.5,0,0.7-0.4,0.6-0.9
					c-0.1-0.4-0.4-0.7-0.7-1.1c0,0-0.1,0-0.1,0c-0.7,0.2-1.4,0-2.1,0.5C289.5,285,289.2,285.1,289.2,285.5L289.2,285.5z
					 M283.3,292.2c0.1-0.1,0.2-0.2,0.2-0.2c0-0.5,0.2-1.1,0.1-1.5c-0.3-1-0.8-1.8-1.9-1.9c-0.4,0-1.3,0.2-1.5,0.6
					c-0.4,0.7-0.6,1.5-0.4,2.3c0.1,0.6,0.4,1.1,0.7,1.6c0.1,0.1,0.2,0.2,0.3,0.2c0.6,0.1,1.2,0.3,1.8,0.1
					C283,293.1,283.3,292.8,283.3,292.2L283.3,292.2z M281.9,288.1c-0.7-0.2-0.8-0.2-1,0.1C281.2,288.2,281.6,288.1,281.9,288.1z
					 M292.8,284.6c0,0-0.1,0-0.1,0c0,0.1,0.1,0.2,0.1,0.3c0,0,0.1,0,0.1,0C292.8,284.8,292.8,284.7,292.8,284.6z"/>
				<path class="st7" d="M297.7,299.1c-0.1,0.2-0.3,0.3-0.4,0.5c-0.1,0-0.3,0-0.3,0.1c-0.2,0.1-0.3,0.3-0.4,0.4
					c-0.3,0.1-0.4,0.4-0.4,0.7c-0.1,0-0.1,0.1-0.2,0.1c-0.1,0.1-0.2,0.1-0.3,0.2c0,0,0,0,0,0c-0.1,0-0.2-0.1-0.3,0
					c-0.2,0-0.4,0.1-0.2,0.4c0,0,0,0,0,0c-0.1,0-0.1,0.1-0.2,0.1l0,0c0,0,0,0,0,0c-0.1,0-0.1,0.1-0.2,0.1c0,0,0,0-0.1,0
					c-0.1,0-0.1-0.1-0.2-0.1c0,0.1,0,0.1,0,0.2c-0.8,0.4-1.7,0.8-2.5,1.2c-0.1,0.1-0.3,0.1-0.4,0.2c0,0,0,0,0,0
					c-0.2,0-0.3,0-0.5,0.1c-0.1,0-0.1,0-0.2,0.1c-0.1,0-0.1,0-0.2,0c-0.1,0-0.2,0-0.2,0c-0.2,0-0.3,0.1-0.5,0.1
					c-0.3,0.1-0.6,0.1-0.9,0.2c-0.2,0-0.3,0-0.5,0.1c-0.3,0-0.5,0-0.8,0.1c-0.2,0-0.4,0-0.6,0c-0.1-0.1-0.1-0.1-0.2-0.2
					c0.1,0,0.1,0,0.2,0c0.2,0,0.4,0,0.7,0c-0.2-0.2-0.3-0.3-0.4-0.4c-0.1-0.1-0.3-0.2-0.3,0.1c-0.3-0.1-0.6-0.1-0.9-0.2
					c-0.9-0.5-1.8-0.9-2.7-1.4c-1.6-0.9-2.9-2.3-3.9-3.9c0.1,0,0.2,0,0.3,0c0,0,0,0,0,0c0.2,0.1,0.4,0.1,0.5,0.2c0,0,0,0,0.1,0
					c0.1,0,0.2,0.1,0.3,0.1l0,0c0,0.3,0.2,0.5,0.5,0.4c0.3-0.1,0.2-0.2,0.2-0.4c0,0,0,0,0-0.1c0.3-0.1,0.6-0.7,0.6-1.2
					c0,0,0-0.1,0.1-0.1c0.2,0,0.4,0,0.5,0c0,0,0-0.1,0-0.1c-0.1,0-0.2,0-0.3,0c0,0,0-0.1,0-0.1c0-0.1,0.1-0.2,0.1-0.3
					c0.1,0,0.2,0.1,0.4,0.1c0-0.2,0-0.4,0-0.6c0-0.1,0-0.1,0-0.2c0.2,0,0.5,0.4,0.7-0.1c0.1,0,0.3,0,0.5-0.1
					c-0.1-0.2-0.2-0.3-0.3-0.5c-0.1,0.2-0.2,0.4-0.3,0.5c-0.1,0-0.2,0-0.4,0c0-0.2,0-0.3,0.1-0.3c0.3-0.3,0.6-0.6,1-0.6
					c0.1,0,0.2-0.1,0.3-0.2c0.2-0.2,0.3-0.4,0.5-0.6l0,0l0,0c0.1,0.2,0.1,0.5,0.3,0.6c0.5,0.3,0.9,0.6,1.4,0.9
					c0.1,0.1,0.3,0.1,0.3,0.2c0.1,0.6,0.4,1.2,0.1,1.7c-0.3,0.7-0.9,1.1-1.6,1.1c-0.3,0-0.6-0.1-0.8-0.5c0-0.1,0-0.1-0.1-0.2
					c0-0.1,0-0.3-0.1-0.4c0-0.1,0-0.1,0-0.2c0-0.1-0.1-0.2-0.1-0.3c-0.1,0-0.1,0-0.2,0c-0.1,0-0.2,0-0.2,0c-0.1,0-0.1,0-0.2,0
					c0,0-0.1,0-0.1,0c0,0.1,0,0.1,0,0.2c0,0.8,0.1,1.5,0.7,2c0,0,0.1,0.1,0.1,0.1l0,0l0,0c0,0.1,0,0.1,0,0.2c0,0,0.1,0,0.1-0.1
					c0.4,0.1,0.6,0.2,0.9,0.6c0.2,0.4,0.6,0.8,1,1c1.2,0.5,2.4,0.3,3.4-0.6c0.1,0,0.2,0,0.3,0c0,0,0.1,0.1,0.1,0.1c0,0,0,0,0-0.1
					c0,0-0.1,0-0.1-0.1c0-0.1,0-0.2,0-0.3c0,0,0-0.1,0-0.1l0,0c0,0,0.1,0,0.1-0.1c0.2,0,0.4,0,0.1-0.3c0-0.5,0.2-0.9,0.6-1.1
					c0.1-0.1,0.2-0.2,0.3-0.2c0.1,0,0.3,0.2,0.3,0.1c0.2-0.2,0-0.3-0.1-0.5c0.1-0.7,0.1-1.3-0.2-1.9c-0.2,0.1-0.5,0.2-0.7,0.3
					c0.2,0.6,0.3,1.1-0.1,1.6l0,0c0,0,0,0,0,0c-0.3,0-0.7,0.1-1,0.1c-0.1,0-0.1,0-0.2,0c-0.4-0.3-0.8-0.6-1.2-0.8
					c0-0.2,0-0.4-0.1-0.6c-0.2-0.6-0.1-1.1,0.5-1.4c0.1-0.1,0.2-0.2,0.3-0.3c0,0,0.1-0.1,0.1-0.1c0-0.1,0.1-0.1,0.1-0.2
					c0.1-0.1,0.2-0.2,0.3-0.3c0.1-0.2,0.1-0.4,0.1-0.5c0-0.1,0.2-0.2,0.2-0.2c0.2,0.1,0.5,0.1,0.6,0.3c0.3,0.3,0.7,0.3,1,0.4
					c0,0,0,0,0,0c0.1,0.1,0.1,0.1,0.2,0.2c0.1,0.1,0.3,0.2,0.4,0.3c-0.2,0.2-0.4,0.1-0.7,0c-0.1-0.1-0.3-0.2-0.3-0.1
					c-0.1,0.1-0.2,0.3-0.3,0.5c0,0,0.1,0,0.1,0.1c0.3-0.3,0.5-0.3,0.8,0c0.3,0.2,0.5,0.2,0.7-0.1l0,0c0.1,0.1,0.1,0.1,0.2,0.2l0,0
					c0,0.3-0.2,0.6,0.2,0.8c0.2,0.1,0.4,0.4,0.6,0.7c0.1-0.4-0.5-0.6,0-0.9c0.1,0.1,0.2,0.2,0.3,0.3c0.1,0.3,0.2,0.8,0.6,0.6
					c0,0,0,0,0,0c0,0.1,0.1,0.2,0.1,0.4c0.1-0.1,0.3-0.1,0.4-0.2c0.1-0.1,0.1-0.2,0.1-0.3l0,0c0.7-0.4,1.4-0.7,2.1-1.1
					c0,0,0-0.1,0-0.1c0.2,0,0.4-0.1,0.5-0.1c0,0.1,0,0.2,0,0.2c0,0.2,0,0.4,0,0.6c0.6,0.1,0.4-0.4,0.3-0.6c0.1,0,0.3,0.1,0.4,0.2
					c0.2,0.1,0.3,0.1,0.3-0.1c0.2,0,0.4,0,0.6,0c0,0.1,0,0.2,0,0.4c-0.5,0.1-0.2,0.4-0.2,0.6c-0.1,0.2-0.2,0.5-0.2,0.7
					c-0.1,0-0.2,0-0.4,0c0.1,0.2,0.2,0.3,0.2,0.4c-0.1,0.1-0.1,0.2-0.2,0.3c-0.1,0-0.1-0.1-0.2-0.1c0,0.2,0,0.3,0,0.5
					c0,0.1-0.1,0.1-0.1,0.2c-0.1,0-0.3,0-0.4,0c0,0,0,0.1,0,0.1c0.1,0,0.2,0.1,0.3,0.1c-0.1,0.1-0.1,0.2-0.2,0.3
					c-0.2-0.3-0.3,0-0.5,0C297.6,298.9,297.6,299,297.7,299.1z M295.9,300.5c0,0,0.1-0.1,0.1-0.1c0,0,0,0,0,0
					C295.9,300.4,295.9,300.5,295.9,300.5C295.9,300.5,295.9,300.6,295.9,300.5C295.9,300.6,295.9,300.5,295.9,300.5z M284.5,294.9
					C284.4,294.8,284.4,294.8,284.5,294.9C284.4,294.8,284.4,294.8,284.5,294.9C284.4,294.9,284.4,294.9,284.5,294.9
					C284.4,294.9,284.4,294.9,284.5,294.9z"/>
				<path class="st8" d="M276.4,298c-0.2-0.6-0.5-1.3-0.7-1.9c-0.6-2.7-0.2-5.2,0.6-7.8c0.2-0.6,0.4-1.1,0.5-1.6
					c0.1-0.2,0-0.5,0-0.7c-0.1-0.4-0.2-0.9-0.3-1.3c-0.1-0.7-0.1-1.4-0.2-2.1c0-0.1-0.1-0.2-0.1-0.3c0-0.1,0-0.2,0-0.3
					c0-0.1,0.1-0.1,0.1-0.2c0-0.3-0.1-0.6-0.1-0.9c0,0,0-0.1,0-0.1c0.1-0.3,0.2-0.6,0.4-0.9c0,0.7,0,1.3,0,2c0.1,1.4,0.4,2.7,0.8,4
					c0.1,0.3,0.1,0.7,0,0.9c-0.6,1.7-1.1,3.4-1.3,5.3c-0.2,1.8,0,3.6,0.6,5.3c0.1,0.2,0.2,0.3,0.4,0.3
					C276.8,297.9,276.6,297.9,276.4,298z"/>
				<path class="st9" d="M275.5,304c0-0.7,0.4-1.1,0.8-1.6c0.3-0.4,0.6-0.6,0.9-1c0.2-0.2,0.4-0.2,0.7,0c0.6,0.5,1.1,1.1,1.7,1.6
					C279.1,303.9,276.5,304.4,275.5,304z"/>
				<path class="st10" d="M295.1,282.9c-0.1-0.2-0.3-0.3-0.3-0.5c-0.1-0.7-0.2-1.5-0.3-2.2c0,0-0.1,0-0.1,0c0,0.4,0,0.8,0.1,1.2
					c0.1,0.4,0.1,0.7-0.1,1.1c-0.1-1.3-0.2-2.5-0.5-3.8c-0.3,0.2-0.6,0.4-0.9,0.6c-0.1-0.1-0.1-0.2-0.2-0.2
					c-0.3-0.1-0.7-0.1-1.1-0.2c0.1,0,0.2-0.1,0.3-0.1c0.3-0.1,0.6-0.1,0.9-0.2c0.1,0,0.2,0,0.2,0c0.2,0.5,0.4,0.2,0.6,0
					c0.1,0,0.1-0.1,0.2-0.1c0.1-0.3-0.2-0.7,0.3-1c0.1,0.3,0.2,0.6,0.3,0.9c0.1,0,0.1,0,0.2,0c-0.1-0.4-0.2-0.7-0.2-1.1
					c-0.2-0.1-0.5-0.1-0.7-0.2c0,0.3,0,0.5,0,0.9c-0.2-0.1-0.4-0.2-0.6-0.3c-0.1,0-0.3,0-0.4,0c-0.1,0.1-0.2,0.2-0.2,0.4
					c-0.1,0.4-0.3,0.4-0.4,0.3c-0.6,0.2-0.8,0.9-1.4,1c1-1.2,2.2-2.2,3.6-2.9c0.1,0,0.2,0.1,0.3,0.1c0.1,0.4,0.2,0.8,0.3,1.2
					c0,0.1,0,0.1,0,0.2c0.1,0.3,0.1,0.6,0.2,1c0.1,0.4,0.1,0.7,0.2,1.1c0,0.1,0,0.1,0,0.2c0,0.1,0,0.2,0,0.3c0,0.3,0,0.5,0,0.8
					c0,0.2,0,0.4,0,0.6c0,0,0,0.1,0,0.1l0,0c0,0.2,0,0.4,0,0.6c0,0.1,0,0.2,0,0.2C295.2,282.7,295.2,282.8,295.1,282.9
					C295.2,282.8,295.2,282.9,295.1,282.9C295.1,282.9,295.1,282.9,295.1,282.9z"/>
				<path class="st11" d="M287.1,303.6c0.1,0.1,0.1,0.1,0.2,0.2c-1.1,0.2-2.3,0-3.4-0.2c-2.2-0.4-4.3-1.3-6-3.1
					c-0.6-0.6-1-1.5-1.5-2.2c0.2-0.1,0.3-0.2,0.5-0.2c0.2,0.3,0.4,0.7,0.6,1c0.8,1.2,1.7,2.1,3,2.7c0.3,0.1,0.5,0.3,0.8,0.3
					c0.1,0,0.2,0.1,0.3,0.1c0.3,0.2,0.7,0.4,1,0.5c0.4,0.2,0.9,0.2,1.3,0.4c0.8,0.3,1.5,0.3,2.3,0.3c0.1,0,0.3,0.1,0.4,0.1
					C286.8,303.6,287,303.6,287.1,303.6z"/>
				<path class="st12" d="M298.9,293.8c0-0.1,0-0.3,0-0.4c0.1-0.9-0.1-1.8-0.4-2.7c-0.3-1.1-0.8-2.2-1.3-3.3c0.1,0,0.3,0,0.4,0
					c0-0.2,0.1-0.3,0.1-0.5c0.3,0.5,0.6,1,0.8,1.5c0.6,1.4,1,2.8,1.1,4.3c0,0.4,0,0.7,0,1.1c-0.1-0.1-0.1-0.2-0.2-0.4
					c-0.1-0.3-0.1-0.7-0.1-1c0-0.1-0.1-0.2-0.1-0.3c-0.1,0.4-0.2,0.8-0.1,1.1c0,0.3,0,0.6,0.3,0.7c0,0,0,0.3,0,0.4
					c-0.1,0.2-0.2,0.3-0.3,0.4c-0.1,0-0.1,0-0.2,0C298.9,294.4,298.9,294.1,298.9,293.8z"/>
				<path class="st13" d="M297.7,286.8c0,0.2-0.1,0.3-0.1,0.5c-0.1,0-0.2,0-0.4,0c0-0.1,0-0.1,0-0.2c0-0.4,0-0.7-0.4-0.9l0,0
					c-0.1-0.2-0.1-0.4-0.2-0.6c-0.1-0.1-0.2-0.2-0.4-0.3c0-0.1-0.1-0.1-0.1-0.2c-0.3-0.6-0.6-1.1-0.9-1.7c0-0.1,0-0.2,0-0.3
					c0,0,0,0,0,0c0.3-0.5,0.1-1,0-1.5c0,0,0-0.1,0-0.1c0-0.2,0-0.4,0-0.6c0-0.3,0-0.5,0-0.8c0-0.1,0-0.2,0-0.3c0,0,0.1-0.1,0.1-0.1
					c0,0-0.1-0.1-0.1-0.1c-0.1-0.4-0.1-0.7-0.2-1.1c0-0.3,0.1-0.7-0.2-1c0-0.1,0-0.1,0-0.2c0-0.1,0.1-0.3,0.1-0.4
					c0.1,0.4,0.3,0.9,0.4,1.3c0,0.1,0.1,0.2,0.2,0.3l0,0c0,0.1,0,0.2,0,0.3c0.1,1,0.3,2.1,0.4,3.1c0,0.1,0,0.2,0,0.3
					c0,0.1,0,0.2,0,0.4c-0.1,0.5-0.1,1,0.3,1.4c0.5,0.6,0.8,1.3,1.2,1.9c0,0.2,0,0.3,0,0.5c0,0,0.1,0,0.1,0c0-0.1,0.1-0.1,0.1-0.2
					C297.6,286.6,297.7,286.7,297.7,286.8z"/>
				<path class="st9" d="M274.8,300.5L274.8,300.5C274.8,300.5,274.8,300.5,274.8,300.5c-0.3-0.2-0.5-0.4-0.7-0.6c0,0,0,0,0,0
					c-0.1-0.2-0.2-0.4,0-0.6c0.1,0,0.1-0.1,0.2-0.1c0.4-0.2,0.8-0.4,1.2-0.5c0.1,0,0.1,0,0.2,0c0.2,0.4,0.5,0.8,0.7,1.2
					c0,0,0,0,0,0.1c0,0.1,0.1,0.1,0.1,0.2c0,0,0,0,0,0c0.1,0.1,0.1,0.1,0.2,0.2c0,0.1,0.1,0.1,0.1,0.2c0,0.1,0,0.1,0,0.2
					c0,0,0,0,0,0.1c-0.1,0.1-0.2,0.2-0.3,0.2c0,0,0,0,0,0c-0.1,0.1-0.2,0.2-0.3,0.2c-0.1,0-0.2,0-0.2,0c-0.1,0-0.1-0.1-0.2-0.1
					c0,0,0,0,0,0c0,0-0.1,0-0.1-0.1c0,0,0,0-0.1,0c-0.2-0.1-0.4-0.2-0.5-0.3c0,0-0.1,0-0.1-0.1C275,300.7,274.9,300.6,274.8,300.5z"
					/>
				<path class="st14" d="M290.9,304.2c0.2,0,0.3-0.1,0.5-0.1c0.4-0.1,0.7-0.2,1.1-0.3c0,0,0,0,0.1,0c0.1,0,0.2,0,0.3,0
					c-0.1,0.2-0.2,0.5-0.3,0.5c-0.9,0.1-1.9,0.3-2.8,0.7c-0.1,0-0.2,0.2-0.2,0.3c-0.7,0.1-1.5,0.1-2.2,0.2c0.1-0.1,0.1-0.3,0.2-0.5
					c-0.2,0-0.4,0-0.6,0.1c-0.7,0.2-1.3,0-2,0c-0.2,0-0.3-0.2-0.5-0.3c0.1,0,0.1,0,0.2,0c0.1,0,0.2,0,0.2,0c0.6,0.1,1.2,0.1,1.8,0.2
					c0.2,0,0.4,0,0.6,0c0.1,0,0.1,0.1,0.2,0.1c0.8-0.1,1.6-0.1,2.5-0.3C290.2,304.4,290.5,304.3,290.9,304.2z"/>
				<path class="st14" d="M286.2,307L286.2,307C286.2,307,286.2,307,286.2,307c-0.5-0.2-1-0.5-1.5-0.7l0,0c0,0,0,0,0,0
					c-0.1-0.1-0.1-0.2-0.2-0.2c0,0,0,0,0,0c0.1,0,0.3-0.1,0.4,0c0.4,0.2,0.7,0.4,1.1,0.5c0.4,0.2,0.8,0.4,1.1,0.5
					c0.6,0.1,1.1,0.2,1.7,0.3c0.4,0.1,0.9,0.1,1.3,0.2c0.1,0,0.1,0.1,0.2,0.2c-0.2,0-0.3,0-0.5,0c-0.1,0-0.2,0-0.2,0
					c-0.8-0.2-1.6-0.3-2.4-0.5c0,0,0,0,0,0s0,0,0,0C286.8,307.3,286.5,307.2,286.2,307z"/>
				<path class="st15" d="M284.1,280.5c-0.5,0.1-1,0.3-1.6,0.4c0.1,0,0.1-0.1,0.2-0.1c0.6-0.2,1.3-0.4,1.9-0.6
					c0.2,0,0.4-0.1,0.6-0.1c0.1,0,0.3,0,0.4-0.1c1,0,2,0,3.1,0c0.1,0,0.1,0,0.2,0.1c-1.4,0.1-2.8,0.3-4.2,0.4
					C284.5,280.4,284.3,280.4,284.1,280.5z"/>
				<path class="st15" d="M276.4,280c-0.1,0.3-0.2,0.6-0.4,0.9c0.1-0.6,0.1-1.3,0.2-1.9c0-0.1,0.2-0.2,0.3-0.2
					c0.9,0.3,1.8,0.7,2.6,1c-0.2,0-0.3,0-0.5-0.1c-0.5-0.1-1-0.2-1.4-0.4c-0.1-0.3-0.3-0.4-0.6-0.4c-0.4,0.1-0.2,0.5-0.1,0.7
					C276.5,279.8,276.5,279.9,276.4,280z"/>
				<path class="st14" d="M293.2,303.4c0.1,0,0.2,0,0.2-0.1c0.4-0.2,0.7-0.4,1.1-0.6c0,0,0.1-0.1,0.1-0.1c0.2-0.1,0.3-0.2,0.5-0.3
					c0.2-0.1,0.4-0.2,0.5-0.2c0,0,0,0,0.1,0.1c-0.3,0.4-0.6,0.8-0.9,1.1c-0.1,0.1-0.2,0.2-0.3,0.2c0,0,0,0,0,0
					c-0.2-0.1-0.4-0.3-0.6-0.2c-0.3,0-0.6,0.2-1,0.3C293,303.6,293.1,303.5,293.2,303.4z"/>
				<path class="st13" d="M299,294.7c0.1-0.1,0.3-0.2,0.3-0.4c0.1-0.1,0.1-0.4,0-0.4c-0.4-0.1-0.3-0.5-0.3-0.7c0-0.4,0-0.7,0.1-1.1
					c0,0.1,0.1,0.2,0.1,0.3c0.1,0.3,0.1,0.7,0.1,1c0,0.1,0.1,0.2,0.2,0.4c0,0.4-0.1,0.8-0.1,1.2C299.4,294.9,299.1,295.1,299,294.7z
					"/>
				<path class="st16" d="M290.9,304.2c-0.3,0.1-0.7,0.3-1,0.3c-0.8,0.1-1.6,0.2-2.5,0.3c-0.1,0-0.1,0-0.2-0.1
					c0.1,0,0.2-0.1,0.2-0.1c1.1-0.2,2.1-0.3,3.2-0.4C290.7,304.1,290.8,304.2,290.9,304.2z"/>
				<path class="st14" d="M292.9,307.2c0,0.1,0,0.1,0,0.2c-0.1,0.3-0.2,0.4-0.5,0.4c-0.4,0-0.8,0.1-1.3,0.1c-0.1,0-0.1,0-0.2,0
					c-0.2-0.1-0.4-0.1-0.5-0.2c0.6,0,1.3-0.1,1.9-0.1c0.3,0,0.4-0.1,0.4-0.4c0.1-0.5,0.2-1,0.3-1.5c0-0.2,0.2-0.3,0.4-0.5
					c-0.1,0.5-0.3,1.1-0.4,1.6c0,0,0,0,0,0C292.9,307,292.9,307.1,292.9,307.2z"/>
				<path class="st12" d="M276.9,298c-0.2,0.1-0.3,0.2-0.5,0.2c0-0.1-0.1-0.2-0.1-0.3c0.2-0.1,0.5-0.2,0.7-0.2
					c0.2,0,0.3-0.1,0.5-0.1c0.6,0,1.3-0.1,1.9-0.1c0.2,0.1,0.4,0.1,0.7,0.2c-0.1,0-0.2,0-0.3,0c-0.4,0-0.7-0.1-1.1-0.1
					C278.1,297.8,277.5,297.9,276.9,298z"/>
				<path class="st14" d="M283.9,305.9c-0.6-0.4-1.1-0.8-1.7-1.2c-0.1-0.1-0.1-0.2-0.2-0.2c0,0,0,0,0,0c0.5,0.3,0.9,0.6,1.4,0.9
					c0.3,0.2,0.6,0.4,0.8,0.6c0,0,0,0,0,0C284.1,305.9,284,305.9,283.9,305.9z"/>
				<path class="st16" d="M287.2,307.4c0.8,0.2,1.6,0.3,2.4,0.5c-0.1,0.3-0.3,0.5-0.5,0.3c-0.3-0.4-0.8-0.2-1.2-0.4
					C287.7,307.6,287.4,307.5,287.2,307.4z"/>
				<path class="st14" d="M282,304.4c-0.3-0.2-0.5-0.4-0.8-0.6c0-0.1,0-0.1,0.1-0.2c0.3,0.1,0.6,0.2,1,0.3c0.1,0,0.2,0.1,0.3,0.1
					c0.1,0,0.1,0,0.2,0c0.1,0.1,0.3,0.1,0.4,0.2c-0.2,0-0.4-0.1-0.7-0.1C282.3,304.3,282.1,304.4,282,304.4
					C282,304.4,282,304.4,282,304.4z"/>
				<path class="st17" d="M284.7,280.1c-0.6,0.2-1.3,0.4-1.9,0.6c-0.1,0-0.1,0.1-0.2,0.1c0,0,0,0,0,0c-0.2,0.1-0.4,0.1-0.5,0.2
					c-0.2,0.1-0.4,0.1-0.5-0.1l0,0c0.5-0.2,1-0.4,1.6-0.6c0.3-0.1,0.7-0.1,1.1-0.2C284.3,280.1,284.5,280.1,284.7,280.1z"/>
				<path class="st16" d="M292.9,306.9c0.1-0.5,0.3-1.1,0.4-1.6c0-0.1,0-0.2,0.1-0.2c0.2-0.2,0.3-0.3,0.5-0.5c0,0.1,0,0.1,0,0.2
					c-0.3,0.7-0.6,1.3-0.9,2C293,306.8,293,306.9,292.9,306.9z"/>
				<path class="st18" d="M296.1,300.7c0-0.3,0.1-0.6,0.4-0.7c0.2-0.1,0.3-0.3,0.4-0.4c0.1-0.1,0.2,0,0.3-0.1
					C296.9,299.9,296.5,300.3,296.1,300.7z"/>
				<path class="st16" d="M291.1,307.9c0.4,0,0.8-0.1,1.3-0.1c0.3,0,0.5-0.1,0.5-0.4c0.2,0.3,0.1,0.5-0.1,0.5
					c-0.5,0.1-1,0.1-1.5,0.1C291.2,308.1,291.2,308,291.1,307.9z"/>
				<path class="st16" d="M286.7,304.7c-0.6-0.1-1.2-0.1-1.8-0.2c0.2-0.1,0.3-0.2,0.5-0.1c0.4,0,0.8,0.1,1.2,0.1
					C286.6,304.5,286.6,304.7,286.7,304.7z"/>
				<path class="st14" d="M293.9,304.6c-0.2,0.2-0.3,0.3-0.5,0.5c0-0.8,0.6-1.1,1-1.5c0,0,0,0,0,0c0,0.1,0,0.2,0,0.2
					c-0.1,0.1-0.1,0.1-0.2,0.2C294.1,304.2,294,304.4,293.9,304.6C293.9,304.6,293.9,304.6,293.9,304.6z"/>
				<path class="st19" d="M295.9,282.2c-0.1-1-0.3-2.1-0.4-3.1c0.1,0.1,0.2,0.2,0.2,0.3c0.1,0.8,0.2,1.7,0.3,2.5
					C296,282,295.9,282.1,295.9,282.2z"/>
				<path class="st20" d="M276.1,282.3c0,0.1,0.1,0.2,0.1,0.3c0.1,0.7,0.1,1.4,0.2,2.1C276.3,283.9,276.2,283.1,276.1,282.3z"/>
				<path class="st16" d="M284.7,306.4c0.5,0.2,1,0.5,1.5,0.7C285.6,307.2,285.1,306.8,284.7,306.4z"/>
				<path class="st16" d="M275.5,298.7c-0.4,0.2-0.8,0.4-1.2,0.5c0.3-0.3,0.7-0.5,1-0.8C275.3,298.4,275.5,298.6,275.5,298.7z"/>
				<path class="st16" d="M294.5,302.8c-0.4,0.2-0.7,0.4-1.1,0.6c0.1-0.1,0.2-0.3,0.2-0.4c0,0-0.1-0.1-0.2-0.2
					C293.8,302.7,294.2,302.8,294.5,302.8z"/>
				<path class="st16" d="M290.4,307.8c0.2,0.1,0.4,0.1,0.5,0.2c-0.4,0-0.7,0.1-1.1,0.1c0,0-0.1-0.1-0.1-0.2c0.2,0,0.3,0,0.5,0
					C290.4,307.8,290.4,307.8,290.4,307.8z"/>
				<path class="st16" d="M283.1,304.3c-0.1-0.1-0.3-0.1-0.4-0.2c0.4,0,0.7,0,1.1,0.1c0.1,0,0.1,0.1,0.2,0.2c0,0,0,0,0,0
					c-0.1,0-0.2,0-0.3,0c0,0,0,0,0,0C283.4,304.4,283.3,304.4,283.1,304.3C283.1,304.3,283.1,304.3,283.1,304.3z"/>
				<path class="st16" d="M276.4,299.8c-0.2-0.4-0.5-0.8-0.7-1.2c0.1,0,0.2,0,0.2,0C276.1,299,276.2,299.4,276.4,299.8z"/>
				<path class="st21" d="M294.8,277.3c0,0.1-0.1,0.3-0.1,0.4c-0.1-0.4-0.2-0.8-0.3-1.2C294.5,276.7,294.7,277,294.8,277.3z"/>
				<path class="st18" d="M299,294.7c0.1,0.4,0.3,0.2,0.5,0.2c0,0.1-0.1,0.2-0.1,0.3c-0.2,0-0.4,0-0.6,0c0-0.1,0-0.3,0-0.4l0,0
					C298.9,294.7,299,294.7,299,294.7z"/>
				<path class="st16" d="M292.4,303.7c-0.4,0.1-0.7,0.2-1.1,0.3c0.1-0.1,0.2-0.2,0.3-0.2C291.9,303.8,292.2,303.7,292.4,303.7z"/>
				<path class="st18" d="M297.7,299.1c-0.1-0.1-0.1-0.3-0.2-0.4c0.2,0,0.3-0.3,0.5,0C297.9,298.9,297.8,299,297.7,299.1z"/>
				<path class="st15" d="M290.4,279.4c0,0.1,0,0.2,0,0.3c0,0,0,0.1-0.1,0.1c0,0.1-0.1,0.1-0.1,0.2c-0.1,0-0.3,0.1-0.4,0.1l0,0
					C290,279.9,290.2,279.6,290.4,279.4z"/>
				<path class="st16" d="M286.2,307c0.3,0.1,0.6,0.2,0.9,0.3C286.8,307.5,286.5,307.3,286.2,307z"/>
				<path class="st16" d="M274.1,299.3c-0.2,0.2-0.1,0.4,0,0.6c-0.4,0.1-0.3-0.3-0.3-0.5C273.8,299.4,274,299.4,274.1,299.3z"/>
				<path class="st16" d="M274.1,299.9c0.2,0.2,0.5,0.4,0.7,0.6C274.3,300.6,274.3,300.2,274.1,299.9z"/>
				<path class="st11" d="M289.2,303.7c0.3-0.1,0.6-0.1,0.9-0.2C289.8,303.5,289.5,303.6,289.2,303.7z"/>
				<path class="st15" d="M279.9,280.1c-0.3,0.1-0.5,0-0.7-0.3c0.2,0,0.3,0.1,0.5,0.1C279.7,280,279.8,280,279.9,280.1z"/>
				<path class="st17" d="M279.9,280.1c-0.1-0.1-0.2-0.1-0.2-0.2c0.4-0.1,0.6,0,0.8,0.4C280.2,280.3,280.1,280.2,279.9,280.1
					C279.9,280.1,279.9,280.1,279.9,280.1z"/>
				<path class="st18" d="M295.2,301.4c-0.2-0.3,0-0.4,0.2-0.4c0.1,0,0.2,0,0.3,0C295.5,301.1,295.4,301.3,295.2,301.4z"/>
				<path class="st16" d="M293.2,303.4c-0.1,0.1-0.2,0.1-0.3,0.2c0,0,0,0-0.1,0c-0.1,0-0.2,0-0.3,0
					C292.6,303.3,292.9,303.3,293.2,303.4z"/>
				<path class="st11" d="M287.9,303.8c0.3,0,0.5,0,0.8-0.1C288.4,303.7,288.2,303.8,287.9,303.8z"/>
				<path class="st17" d="M280.9,280.6c0.3-0.1,0.5,0,0.6,0.4c0,0,0,0,0,0c-0.2-0.1-0.3-0.1-0.5-0.2c0,0,0,0,0,0
					C281,280.7,280.9,280.7,280.9,280.6z"/>
				<path class="st15" d="M276.1,281c0,0.3,0.1,0.6,0.1,0.9c0,0-0.1,0.1-0.1,0.2C276.1,281.7,276.1,281.3,276.1,281z"/>
				<path class="st15" d="M279.9,280.1c0.2,0.1,0.4,0.1,0.6,0.2c0,0,0,0.1,0.1,0.1C280.2,280.6,280,280.4,279.9,280.1z"/>
				<path class="st15" d="M289.4,280.2c-0.2,0-0.4,0.1-0.5-0.2c0.2,0.1,0.4,0.1,0.6,0.2C289.5,280.1,289.5,280.2,289.4,280.2z"/>
				<path class="st18" d="M298.4,298c0-0.2,0-0.3,0-0.5c0.1,0,0.1,0.1,0.2,0.1C298.6,297.8,298.5,297.9,298.4,298z"/>
				<path class="st16" d="M284.6,304.6c-0.1,0-0.1,0-0.2,0c0,0-0.1,0-0.1,0c-0.1-0.1-0.3-0.1-0.4-0.2c0,0,0,0,0,0
					C284.2,304.5,284.4,304.1,284.6,304.6z"/>
				<path class="st16" d="M275.2,300.8c0.2,0.1,0.4,0.2,0.5,0.3C275.5,301.1,275.2,301.3,275.2,300.8z"/>
				<path class="st16" d="M293.9,304.6c0.1-0.2,0.2-0.3,0.3-0.5C294.3,304.4,294.2,304.6,293.9,304.6z"/>
				<path class="st18" d="M298.8,297.3c-0.1-0.1-0.1-0.2-0.2-0.4c0.2,0,0.3,0,0.4,0C299,297,298.9,297.1,298.8,297.3z"/>
				<path class="st18" d="M299.3,296.2c0-0.2-0.3-0.6,0.2-0.6C299.4,295.8,299.3,296,299.3,296.2z"/>
				<path class="st15" d="M280.9,280.6c0,0.1,0.1,0.1,0.1,0.2c-0.2,0-0.4-0.1-0.6-0.1c0-0.1,0.1-0.1,0.1-0.2c0,0,0.1,0,0.1,0
					C280.7,280.5,280.8,280.6,280.9,280.6L280.9,280.6z"/>
				<path class="st16" d="M294.4,303.9c0-0.1,0-0.2,0-0.2c0.1-0.1,0.2-0.2,0.3-0.2C294.8,303.7,294.7,303.9,294.4,303.9z"/>
				<path class="st16" d="M283.9,305.9c0.1,0,0.2,0.1,0.3,0.1c0.1,0.1,0.1,0.1,0.2,0.2C284.1,306.2,283.9,306.1,283.9,305.9z"/>
				<path class="st12" d="M297.6,286.5c0,0.1-0.1,0.1-0.1,0.2c0,0-0.1,0-0.1,0c0-0.2,0-0.3,0-0.5
					C297.5,286.3,297.5,286.4,297.6,286.5z"/>
				<path class="st18" d="M298.2,298.5c-0.1,0-0.2-0.1-0.3-0.1c0,0,0-0.1,0-0.1c0.1,0,0.3,0,0.4,0
					C298.3,298.3,298.2,298.4,298.2,298.5z"/>
				<path class="st16" d="M295.1,302.4c-0.2,0.1-0.3,0.2-0.5,0.3C294.7,302.3,294.9,302.5,295.1,302.4z"/>
				<path class="st17" d="M285.7,280c-0.1,0-0.3,0-0.4,0.1C285.4,279.7,285.5,279.7,285.7,280z"/>
				<path class="st16" d="M276.3,301.2c0.1-0.1,0.2-0.2,0.3-0.2C276.6,301.2,276.5,301.3,276.3,301.2z"/>
				<path class="st14" d="M284.3,306.1c-0.1-0.1-0.1-0.1-0.2-0.2c0,0,0,0,0,0c0.1,0.1,0.2,0.1,0.3,0.2c0,0,0,0,0,0
					C284.5,306.1,284.4,306.1,284.3,306.1C284.4,306.1,284.4,306.1,284.3,306.1z"/>
				<path class="st16" d="M276.6,300.9c0.1-0.1,0.2-0.2,0.3-0.2C276.8,300.8,276.7,300.9,276.6,300.9z"/>
				<path class="st10" d="M289.4,280.2c0,0,0.1,0,0.1-0.1c0,0,0.1,0,0.1,0c0,0.1,0,0.1,0,0.2C289.6,280.3,289.5,280.2,289.4,280.2z"
					/>
				<path class="st18" d="M295.7,301c0.1-0.1,0.2-0.1,0.3-0.2C295.9,300.9,295.8,301,295.7,301z"/>
				<path class="st16" d="M284.4,306.2C284.4,306.1,284.5,306.1,284.4,306.2c0.1,0.1,0.2,0.1,0.2,0.2
					C284.6,306.3,284.5,306.2,284.4,306.2z"/>
				<path class="st18" d="M294.5,301.8c0-0.1,0-0.1,0-0.2c0.1,0,0.1,0.1,0.2,0.1C294.6,301.7,294.6,301.8,294.5,301.8z"/>
				<path class="st16" d="M274.8,300.5c0.1,0.1,0.2,0.1,0.3,0.2C275,300.7,274.9,300.6,274.8,300.5z"/>
				<path class="st19" d="M295.4,278.9c0-0.1,0-0.3,0-0.4c0,0,0,0,0.1,0C295.4,278.6,295.4,278.7,295.4,278.9
					C295.4,278.9,295.4,278.9,295.4,278.9z"/>
				<path class="st17" d="M280.9,280.6c-0.1,0-0.2-0.1-0.3-0.1C280.7,280.5,280.8,280.6,280.9,280.6z"/>
				<path class="st16" d="M282.5,304.1c-0.1,0-0.2-0.1-0.3-0.1C282.3,304,282.4,304,282.5,304.1z"/>
				<path class="st16" d="M276.9,300.6c0-0.1,0-0.1,0-0.2c0,0,0.1,0.1,0.1,0.1C276.9,300.6,276.9,300.6,276.9,300.6z"/>
				<path class="st16" d="M275.9,301.1c0.1,0,0.1,0.1,0.2,0.1C276,301.2,275.9,301.2,275.9,301.1z"/>
				<path class="st16" d="M276.7,300.2c-0.1-0.1-0.1-0.1-0.2-0.2C276.6,300.1,276.6,300.2,276.7,300.2z"/>
				<path class="st18" d="M295,301.5c0.1,0,0.1-0.1,0.2-0.1C295.1,301.5,295,301.5,295,301.5z"/>
				<path class="st19" d="M295.9,282.9c0-0.1,0-0.2,0-0.4C295.9,282.6,295.9,282.7,295.9,282.9z"/>
				<path class="st11" d="M290.9,303.3c0.1,0,0.1,0,0.2-0.1C291,303.3,291,303.3,290.9,303.3z"/>
				<path class="st15" d="M289.7,280.3c0-0.1,0-0.1,0-0.2c0,0,0.1,0,0.1,0c0,0,0,0,0,0c0,0.1,0,0.1,0,0.2
					C289.8,280.3,289.7,280.3,289.7,280.3z"/>
				<path class="st11" d="M290.5,303.4c0.1,0,0.2,0,0.2,0C290.7,303.4,290.6,303.4,290.5,303.4z"/>
				<path class="st16" d="M292.9,307.2c0-0.1,0-0.2,0-0.3C292.9,307,292.9,307.1,292.9,307.2z"/>
				<path class="st16" d="M276.5,300.1c0-0.1-0.1-0.1-0.1-0.2C276.5,299.9,276.5,300,276.5,300.1z"/>
				<path class="st18" d="M294.7,301.7c0.1,0,0.1-0.1,0.2-0.1C294.8,301.6,294.8,301.6,294.7,301.7z"/>
				<path class="st16" d="M275.8,301.1C275.8,301.1,275.8,301.1,275.8,301.1C275.8,301.1,275.8,301.1,275.8,301.1z"/>
				<path class="st11" d="M291.6,303.2C291.6,303.2,291.5,303.2,291.6,303.2C291.6,303.2,291.6,303.2,291.6,303.2z"/>
				<path class="st22" d="M279.4,297.6c-0.6,0-1.3,0-1.9,0.1c-0.2,0-0.3,0.1-0.5,0.1c-0.2,0-0.3-0.1-0.4-0.3
					c-0.6-1.7-0.8-3.5-0.6-5.3c0.2-1.8,0.7-3.6,1.3-5.3c0.1-0.3,0.1-0.7,0-0.9c-0.5-1.3-0.7-2.6-0.8-4c-0.1-0.7,0-1.3,0-2
					c0-0.1,0-0.2,0-0.3c0.1-0.1,0.2-0.1,0.3-0.2c0.1,0.1,0.1,0.2,0.1,0.3c0,0.1,0,0.2,0,0.3c0.1,0.3,0.1,0.6,0.2,0.9
					c0.1,0.3,0.1,0.6,0.2,0.9c0.1,0.8,0.2,1.6,0.3,2.4c0,0.2,0.1,0.4,0.2,0.7c0,0.1,0.1,0.1,0.2,0.2c0-0.1,0.1-0.2,0.1-0.3l0,0
					c0,0,0-0.1,0.1-0.1l0,0l0,0c0.1,0,0.1,0.1,0.2,0.1c0.2,0.4,0.3,0.8,0.6,1.1c0.2,0.3,0.2,0.5,0.1,0.8c-0.5,1.8-0.8,3.7-0.8,5.7
					c0,1.8,0.4,3.5,1.2,5.1C279.5,297.5,279.5,297.5,279.4,297.6z"/>
				<path class="st23" d="M290.3,300c-1,0.9-2.1,1.1-3.4,0.6c-0.4-0.2-0.8-0.6-1-1c-0.2-0.4-0.5-0.6-0.9-0.6c0,0-0.1-0.1-0.1-0.1
					l0,0c0,0,0,0,0,0c0,0-0.1-0.1-0.1-0.1c-0.6-0.5-0.7-1.3-0.7-2c0-0.1,0-0.1,0-0.2c0,0,0.1,0,0.1,0c0.1,0,0.1,0,0.2,0
					c0.1,0,0.2,0,0.2,0c0.1,0,0.1,0,0.2,0c0,0.1,0.1,0.2,0.1,0.3c0,0.1,0,0.1,0,0.2c0,0.1,0,0.3,0.1,0.4c0,0.1,0,0.1,0.1,0.2
					c0.1,0.4,0.4,0.5,0.8,0.5c0.7-0.1,1.3-0.4,1.6-1.1c0.3-0.6,0-1.1-0.1-1.7c0-0.1-0.2-0.1-0.3-0.2c-0.5-0.3-1-0.6-1.4-0.9
					c-0.1-0.1-0.2-0.4-0.3-0.6c0.1-0.2,0.2-0.4,0.3-0.5c0.9-0.5,1.9-0.8,3-0.6c0.3,0,0.6,0.2,0.9,0.3c0,0.2,0.1,0.3,0.1,0.5
					c-0.1,0.3-0.2,0.5-0.3,0.8c0,0.1-0.1,0.1-0.1,0.2c0,0-0.1,0.1-0.1,0.1c-0.1,0.1-0.2,0.2-0.3,0.3c-0.6,0.3-0.6,0.8-0.5,1.4
					c0.1,0.2,0.1,0.4,0.1,0.6c0,0.1-0.1,0.2-0.1,0.3c0.1,0.1,0.3,0.1,0.3,0.2c0.3,0.5,0.5,0.6,1,0.4c0.1,0,0.1,0,0.2,0
					c0.2,0.2,0.8,0.2,1-0.1l0,0c0,0,0,0,0,0c0.4,0,0.5-0.2,0.5-0.6c0-0.2-0.1-0.4-0.1-0.6c0-0.1,0.1-0.3,0.2-0.3
					c0.1,0,0.2,0.1,0.3,0.2c0.1,0.2,0.1,0.4,0.1,0.6c0,0.3-0.1,0.7-0.1,1c0,0,0,0,0,0c-0.1,0.1-0.2,0.2-0.3,0.2
					c-0.2,0.1-0.5,0.1-0.5,0.2c-0.1,0.4-0.2,0.8-0.2,1.2c0,0,0,0,0,0c0,0-0.1,0.1-0.1,0.1C290.4,299.8,290.3,299.9,290.3,300z
					 M290,299.2c-0.9-1-3-0.6-3.3,0.5C287.6,300.6,289.4,300.3,290,299.2z M288.3,293.2C288.3,293.2,288.3,293.1,288.3,293.2
					c-0.6,0-1.1,0.1-1.6,0.1c0,0,0,0.1,0,0.1C287.2,293.4,287.8,293.3,288.3,293.2z"/>
				<path class="st24" d="M292.9,279.2c0.3-0.2,0.6-0.3,0.9-0.6c0.4,1.3,0.4,2.5,0.5,3.8c0,0,0,0,0,0.1c-0.1,0-0.2,0-0.3,0
					c-0.2-0.1-0.4-0.3-0.6-0.4c-0.6-0.3-1.1-0.6-1.7-0.9l0,0c0,0,0,0,0,0c-0.2-0.1-0.4-0.3-0.6-0.4c0.1-0.1,0.2-0.2,0.2-0.2
					C291.9,280.1,292.4,279.6,292.9,279.2C292.9,279.2,292.9,279.2,292.9,279.2z"/>
				<path class="st24" d="M278.3,284.6L278.3,284.6C278.3,284.6,278.3,284.7,278.3,284.6c-0.1,0.1-0.1,0.1-0.1,0.1c0,0,0,0,0,0
					c-0.1-0.1-0.3-0.3-0.3-0.4c-0.2-0.8-0.3-1.7-0.4-2.5c0-0.3,0-0.6,0-0.9c0,0,0,0,0,0c0.3,0.1,0.7,0.2,1,0.3c0,0,0,0,0,0
					c0.7,0.3,1.4,0.7,2.1,1.1c-0.4,0.4-0.7,0.7-1.1,1.1c0,0,0,0,0,0c-0.2,0.2-0.3,0.3-0.5,0.5c0,0,0,0,0,0c-0.1,0.1-0.1,0.1-0.2,0.2
					c0,0,0,0,0,0C278.6,284.2,278.5,284.4,278.3,284.6z"/>
				<path class="st25" d="M282.8,287.8C282.8,287.8,282.7,287.8,282.8,287.8c-0.2-0.1-0.4-0.1-0.6-0.2c0,0,0,0-0.1,0
					c-0.1,0-0.2-0.1-0.4-0.1c-0.2,0-0.3,0-0.5,0c-0.4-0.1-0.6-0.5-0.4-0.9c0.1-0.2,0.2-0.3,0.3-0.4c0.5-0.4,1.1-0.3,1.6-0.4
					c0.1,0,0.2,0.1,0.3,0.1c0.7,0.2,1.1,0.8,1,1.6c-0.1,0.5-0.4,0.7-0.8,0.5C283.1,287.9,282.9,287.8,282.8,287.8z"/>
				<path class="st15" d="M283.3,292.2c0,0.6-0.3,0.9-0.7,1.1c-0.6,0.2-1.2,0.1-1.8-0.1c-0.1,0-0.2-0.1-0.3-0.2
					c-0.3-0.5-0.6-1-0.7-1.6c-0.2-0.9,0.1-1.6,0.4-2.3c0.2-0.4,1.1-0.6,1.5-0.6c1.1,0.1,1.6,0.9,1.9,1.9c0.1,0.5,0,1-0.1,1.5
					C283.5,292,283.4,292.1,283.3,292.2c0-0.2,0.1-0.3,0.1-0.5c0.3-1.1-0.1-2.2-1-2.8c-0.7-0.6-1.7-0.3-2,0.3c-0.7,0.7-0.8,2-0.2,3
					c0.6,1.1,1.7,1.4,2.5,0.7C282.9,292.7,283.1,292.4,283.3,292.2z"/>
				<path class="st20" d="M289.2,285.5c0-0.4,0.2-0.5,0.5-0.8c0.6-0.5,1.4-0.3,2.1-0.5c0,0,0.1,0,0.1,0c0.2,0.4,0.5,0.7,0.7,1.1
					c0.2,0.5-0.1,0.9-0.6,0.9c-0.5,0-0.9,0.4-1.3,0.7c-0.2,0.2-0.3,0.5-0.6,0.5c-0.5,0-0.9-0.2-1-0.8c-0.1-0.3-0.1-0.5-0.1-0.8
					C289,285.7,289.1,285.6,289.2,285.5c0,0.4,0,0.7,0,1c0.1,0.5,0.6,0.8,0.9,0.5c0.5-0.3,0.9-0.6,1.3-0.9c0.1,0,0.2-0.1,0.3-0.1
					c0.3,0,0.6-0.2,0.6-0.6c0-0.4-0.2-0.7-0.6-0.7c0,0,0,0-0.1,0c-0.5-0.3-1.5-0.2-1.9,0.3c-0.1,0-0.1,0-0.2,0.1
					c-0.1,0.1-0.1,0.1-0.2,0.2l0,0C289.4,285.4,289.3,285.4,289.2,285.5z"/>
				<path class="st15" d="M293.7,287.4c0.2,0.4,0.5,0.8,0.7,1.3c0.3,0.8,0.1,1.5-0.1,2.3c-0.2,0.6-0.6,0.8-1.1,0.8
					c-0.3,0-0.6,0.1-0.8,0.1c-0.5,0-1.3-0.9-1.5-1.5c-0.3-0.9-0.2-1.8,0.2-2.6c0.1-0.1,0.3-0.2,0.5-0.2c-0.1,0.2-0.2,0.3-0.3,0.5
					c-0.5,0.7-0.5,1.5-0.2,2.3c0.2,0.8,0.7,1.3,1.5,1.5c0.6,0.1,1.2-0.1,1.6-0.7c0.9-1.4,0.3-3.3-1.4-3.9c0.4-0.1,0.7-0.2,1,0.3
					C293.6,287.4,293.7,287.4,293.7,287.4z"/>
				<path class="st26" d="M298.9,293.8c0,0.3,0,0.7,0,1c0,0,0,0,0,0c-0.4,0.1-0.8,0.1-1.2,0.2c-0.2,0-0.4,0.1-0.5,0.1
					c-0.4,0.1-0.8,0.2-1.1,0.4c-0.4,0.2-0.7,0.5-1,0.7c0,0,0,0,0,0c-0.2,0-0.4,0.1-0.6,0.1c0,0,0,0,0,0c-0.1-0.1-0.2-0.3-0.3-0.4
					c0,0,0-0.1,0-0.1c0.2,0,0.4,0,0.6,0c0.2,0,0.5,0,0.7-0.2c0.4-0.3,0.7-0.5,1.1-0.5c0.1-0.1,0.1-0.1,0.2-0.2
					c0.4-0.1,0.8-0.1,1.3-0.2c0.1,0,0.2-0.1,0.3-0.1c0.2,0,0.3-0.1,0.3-0.3C298.6,294,298.8,293.9,298.9,293.8z"/>
				<path class="st20" d="M297.2,287.2c0,0.1,0,0.1,0,0.2c0.4,1.1,0.9,2.2,1.3,3.3c0.3,0.9,0.5,1.8,0.4,2.7
					c-0.1-0.4-0.1-0.8-0.2-1.1c-0.1-0.4-0.3-0.8-0.4-1.2c0-0.1-0.1-0.2-0.1-0.2c-0.2-0.8-0.4-1.5-0.6-2.3c-0.1-0.4-0.3-0.7-0.5-1.1
					c-0.1-0.1-0.1-0.3-0.1-0.5c0,0,0,0,0,0C297,287,297.1,287.1,297.2,287.2z"/>
				<path class="st10" d="M292.9,279.2c-0.5,0.5-1,0.9-1.5,1.4c-0.1,0.1-0.1,0.1-0.2,0.2c0.2,0.1,0.4,0.3,0.6,0.4
					c-0.1,0.2-0.2,0.4-0.3,0.6c0,0,0.1,0.1,0.1,0.1c-0.1,0-0.3,0.1-0.4,0.1l0,0c0-0.2,0.1-0.5,0.1-0.7c-0.2-0.1-0.4-0.3-0.6-0.5
					c0.1-0.1,0.3-0.1,0.4-0.2c0-0.1,0-0.2-0.1-0.4c0.2,0,0.4-0.1,0.6-0.1c0-0.1,0-0.2-0.1-0.4C292,279.5,292.4,279.3,292.9,279.2z"
					/>
				<path class="st17" d="M292.6,287.1c1.6,0.6,2.3,2.5,1.4,3.9l0,0c0-0.1,0-0.3,0.1-0.4c0.3-0.7,0.3-1.4,0-2.1
					c-0.3-0.6-0.9-1.2-1.6-1.1c-0.5,0-0.8,0.4-1.2,0.6c0,0,0,0,0,0c0.1-0.2,0.2-0.3,0.3-0.5c0,0,0,0,0,0
					C291.9,287.3,292.3,287.2,292.6,287.1z"/>
				<path class="st26" d="M282.8,285.8c-0.6,0.1-1.2,0-1.6,0.4c-0.1,0.1-0.3,0.3-0.3,0.4c-0.2,0.4,0,0.8,0.4,0.9c0.2,0,0.3,0,0.5,0
					c0,0.1,0,0.1,0,0.2c-0.1,0-0.2,0.1-0.3,0c-0.3-0.1-0.6-0.1-0.7-0.3c-0.3-0.5-0.2-0.8,0.1-1.2c0.7-0.9,1.5-0.7,2.4-0.5
					C283.1,285.7,282.9,285.7,282.8,285.8z"/>
				<path class="st27" d="M282.8,285.8c0.1,0,0.3-0.1,0.4-0.1c0.6,0.1,1.1,0.8,1,1.4c0,0.1,0,0.3,0,0.4c-0.1,0.3-0.3,0.7-0.5,0.8
					c-0.2,0.2-0.8-0.2-1-0.5c0.1,0.1,0.3,0.1,0.4,0.2c0.4,0.2,0.7,0,0.8-0.5c0.1-0.7-0.3-1.4-1-1.6
					C283,285.9,282.9,285.8,282.8,285.8z"/>
				<path class="st10" d="M291.8,281.2c0.6,0.3,1.1,0.6,1.7,0.9c0.2,0.1,0.4,0.3,0.6,0.4c0.1,0,0.2,0,0.3,0c0,0.1,0,0.3,0,0.5
					c-0.6-0.4-1.2-0.8-1.8-1.3c-0.1,0-0.1,0.1-0.2,0.2c0,0-0.1,0-0.1,0C292.3,281.5,291.7,281.5,291.8,281.2z"/>
				<path class="st25" d="M285.3,293.7c-0.2,0.2-0.3,0.4-0.5,0.6c-0.1,0.1-0.2,0.2-0.3,0.2c-0.4,0-0.7,0.3-1,0.6c0,0,0,0.2-0.1,0.3
					c0.1,0,0.2,0,0.4,0l0,0c-0.2,0.5-0.5,0.1-0.7,0.1c0-0.1,0-0.2,0.1-0.2c0.2-0.2,0.5-0.5,0.7-0.7c0.2-0.2,0.4-0.4,0.6-0.5
					c0,0,0,0,0,0c0.1-0.1,0.2-0.1,0.4-0.2C285,293.8,285.1,293.8,285.3,293.7z"/>
				<path class="st15" d="M279.5,283.3c0.3-0.3,0.7-0.7,1.1-1.1c-0.7-0.4-1.4-0.7-2.1-1.1c0.3,0,0.5,0.1,0.8,0.2
					c0.3,0.1,0.7,0.3,1,0.5c0.4,0.2,0.5,0.5,0.1,0.8C280.1,282.9,280,283.4,279.5,283.3z"/>
				<path class="st20" d="M296.1,285.3c0,0.1,0.1,0.1,0.1,0.2c0.2,0.3,0.4,0.6,0.6,0.9c0,0,0,0,0,0c0.1,0.2,0.1,0.4,0.2,0.6
					c0,0,0,0,0,0c0,0-0.1,0-0.1,0c-0.4-0.6-0.7-1.2-1.1-1.7c-0.2-0.4-0.5-0.7-0.7-1.1c-0.1-0.1,0-0.3,0-0.4c0,0,0.1,0,0.1,0
					C295.2,284.3,295.7,284.8,296.1,285.3z"/>
				<path class="st26" d="M279.4,297.6c0-0.1,0.1-0.1,0.1-0.2c0.3,0.1,0.7,0.1,1,0.2c0.3,0.1,0.6,0.4,0.9,0c0.1-0.1,0.2-0.1,0.3-0.1
					c0,0.2-0.1,0.3-0.1,0.5c0,0,0,0,0,0.1c-0.2,0-0.4,0-0.6,0c0,0,0,0,0,0c-0.1,0-0.2-0.1-0.3-0.1c0,0,0,0-0.1,0
					c-0.2-0.1-0.4-0.1-0.5-0.2c0,0,0,0,0,0C279.9,297.7,279.7,297.7,279.4,297.6z"/>
				<path class="st12" d="M289.3,294.2c0.1-0.3,0.2-0.5,0.3-0.8c0-0.1,0-0.3-0.1-0.5c0.8,0.1,1.5,0.3,2.1,0.9
					c-0.3-0.1-0.7-0.1-1-0.4c-0.2-0.2-0.4-0.2-0.6-0.3c-0.1,0-0.2,0.1-0.2,0.2c-0.1,0.2-0.1,0.4-0.1,0.5
					C289.6,294,289.4,294.1,289.3,294.2z"/>
				<path class="st10" d="M292.6,287.1c-0.4,0.1-0.7,0.2-1.1,0.3c0-0.1,0-0.2,0-0.3c0-0.1,0-0.2,0-0.4c0.1,0,0.2,0.1,0.3,0.1
					c0.4,0,0.8,0,1.2,0c0.4,0,0.6,0.1,0.7,0.5c-0.1,0-0.1,0-0.2,0C293.3,286.9,293,287,292.6,287.1z"/>
				<path class="st27" d="M292.2,294.2c-0.1-0.1-0.3-0.2-0.4-0.3c0-0.1,0-0.1,0-0.2c0.4,0.3,0.9,0.5,1.2,0.8
					c0.3,0.2,0.6,0.6,0.8,0.9c0,0.1,0,0.1,0,0.2c0,0-0.1,0-0.1,0c-0.1-0.1-0.2-0.2-0.3-0.3c-0.3-0.2-0.5-0.4-0.7-0.6c0,0,0,0,0,0
					c-0.1-0.1-0.1-0.1-0.2-0.2c0,0,0,0,0,0C292.4,294.4,292.3,294.3,292.2,294.2z"/>
				<path class="st15" d="M281,280.8c0.2,0.1,0.3,0.1,0.5,0.2c0.2,0.2,0.3,0.2,0.5,0.1c0.2-0.1,0.4-0.2,0.5-0.2
					c0,0.5-0.4,0.4-0.6,0.5C281.4,281.6,281.3,281.4,281,280.8z"/>
				<path class="st27" d="M283.1,295.3c0,0.1,0,0.2-0.1,0.2c0,0.1,0,0.1,0,0.2c-0.1,0.1-0.3,0.3-0.4,0.4c0,0.1-0.1,0.2-0.1,0.3
					c0,0-0.1,0.1-0.1,0.1c0,0.1,0,0.1-0.1,0.2c0,0,0,0.1-0.1,0.1c0,0-0.1,0-0.1,0C282.1,296.3,282.7,295.4,283.1,295.3z"/>
				<path class="st10" d="M289.8,280.3c0-0.1,0-0.1,0-0.2c0.1,0,0.3-0.1,0.4-0.1c0.1,0,0.3-0.1,0.5-0.1c0,0,0.1,0.2,0,0.3
					c-0.2,0.1-0.4,0.2-0.6,0.3C290.1,280.4,290,280.3,289.8,280.3z"/>
				<path class="st27" d="M285.3,293.7c-0.2,0-0.3,0.1-0.5,0.1c-0.1,0-0.3,0.1-0.4,0.2c0-0.1,0.1-0.3,0.1-0.3
					c0.3-0.2,0.7-0.4,1.1-0.6C285.6,293.4,285.5,293.5,285.3,293.7C285.4,293.7,285.3,293.7,285.3,293.7
					C285.3,293.7,285.3,293.7,285.3,293.7z"/>
				<path class="st12" d="M282.1,296.9c0,0,0.1,0,0.1,0c0,0.5-0.3,1.1-0.6,1.2c0-0.2,0.1-0.3,0.1-0.5c0.1-0.2,0.2-0.4,0.3-0.5
					C282.1,297,282.1,296.9,282.1,296.9L282.1,296.9z"/>
				<path class="st10" d="M284.1,280.5c0.2,0,0.4-0.1,0.6-0.1c0.1,0.1,0.2,0.2,0.3,0.2C284.6,280.9,284.2,280.8,284.1,280.5z"/>
				<path class="st15" d="M278.5,281.2c-0.3-0.1-0.7-0.2-1-0.3c0-0.1,0.1-0.2,0.1-0.3C277.8,280.8,278.3,280.7,278.5,281.2z"/>
				<path class="st10" d="M281.9,288.1c-0.3,0-0.6,0.1-1,0.1C281.1,287.9,281.2,287.9,281.9,288.1z"/>
				<path class="st15" d="M277.4,280.9c0,0.3,0,0.6,0,0.9c0,0-0.1,0-0.1,0c-0.1-0.3-0.1-0.6-0.2-0.9
					C277.2,281,277.3,280.9,277.4,280.9z"/>
				<path class="st8" d="M276.6,279c0.3-0.1,0.5,0,0.6,0.4C276.9,279.4,276.7,279.3,276.6,279z"/>
				<path class="st15" d="M278.3,284.6c0.1-0.2,0.3-0.4,0.4-0.6c-0.1,0.2-0.2,0.4-0.2,0.7C278.5,284.7,278.4,284.7,278.3,284.6z"/>
				<path class="st27" d="M284.4,294c-0.2,0.2-0.4,0.4-0.6,0.5C283.8,294.2,284.1,294.1,284.4,294z"/>
				<path class="st15" d="M279,283.8c0.2-0.2,0.3-0.3,0.5-0.5C279.5,283.7,279.3,283.8,279,283.8z"/>
				<path class="st27" d="M282.2,287.6c0.2,0.1,0.4,0.1,0.5,0.2c-0.2,0-0.3,0.1-0.5,0.1C282.2,287.8,282.2,287.7,282.2,287.6z"/>
				<path class="st10" d="M298.3,294.6c-0.1,0-0.2,0.1-0.3,0.1c0-0.1,0.1-0.2,0.1-0.3C298.2,294.5,298.2,294.5,298.3,294.6z"/>
				<path class="st20" d="M292.8,284.6c0,0.1,0,0.2,0.1,0.3c0,0-0.1,0-0.1,0c0-0.1-0.1-0.2-0.1-0.3
					C292.7,284.6,292.7,284.6,292.8,284.6z"/>
				<path class="st26" d="M282.2,287.6c0,0.1,0,0.2,0,0.3c-0.1-0.1-0.2-0.1-0.4-0.2C282,287.6,282,287.6,282.2,287.6
					C282.2,287.6,282.2,287.6,282.2,287.6z"/>
				<path class="st10" d="M291.1,281.9c-0.1,0.1-0.1,0.1-0.2,0.2c0,0,0-0.1-0.1-0.1C290.9,282,291,281.9,291.1,281.9
					C291.1,281.9,291.1,281.9,291.1,281.9z"/>
				<path class="st10" d="M296.7,294.9c-0.1,0.1-0.1,0.1-0.2,0.2C296.5,294.9,296.5,294.7,296.7,294.9z"/>
				<path class="st27" d="M282.1,287.6c-0.1,0-0.2,0-0.3,0.1c0,0-0.1,0-0.1,0c0-0.1,0-0.1,0-0.2C281.9,287.5,282,287.6,282.1,287.6z
					"/>
				<path class="st10" d="M295.2,283.6C295.1,283.6,295.1,283.6,295.2,283.6c-0.1-0.1-0.1-0.3-0.1-0.4c0,0,0.1,0,0.1,0
					c0,0.1,0,0.1,0.1,0.2c0,0,0,0,0,0C295.2,283.4,295.2,283.5,295.2,283.6L295.2,283.6z"/>
				<path class="st26" d="M293.9,295.6c0-0.1,0-0.1,0-0.2c0.1,0.1,0.1,0.2,0.2,0.2C294,295.7,294,295.7,293.9,295.6
					C293.9,295.7,293.9,295.6,293.9,295.6z"/>
				<path class="st15" d="M278.8,284.1c0.1-0.1,0.1-0.1,0.2-0.2C278.9,283.9,278.8,284,278.8,284.1z"/>
				<path class="st20" d="M295.2,283.1C295.2,283.1,295.1,283.1,295.2,283.1c-0.1-0.1-0.1-0.2-0.1-0.3c0,0,0.1,0,0.1,0
					C295.2,283,295.2,283.1,295.2,283.1z"/>
				<path class="st8" d="M276.9,280.1c0-0.1,0-0.2,0-0.3C276.9,279.9,276.9,280,276.9,280.1z"/>
				<path class="st12" d="M291.8,293.7c0,0.1,0,0.1,0,0.2c-0.1-0.1-0.1-0.1-0.2-0.2C291.7,293.7,291.7,293.7,291.8,293.7z"/>
				<path class="st27" d="M294,295.7C294,295.7,294,295.7,294,295.7c0.1,0,0.1,0,0.1,0c0,0,0,0.1,0,0.1
					C294.1,295.8,294,295.7,294,295.7z"/>
				<path class="st27" d="M282.1,296.9c0,0,0,0.1-0.1,0.1C282.1,297,282.1,296.9,282.1,296.9z"/>
				<path class="st10" d="M290.3,279.8C290.4,279.7,290.4,279.7,290.3,279.8C290.4,279.7,290.4,279.7,290.3,279.8z"/>
				<path class="st28" d="M276.9,298c0.6-0.1,1.2-0.3,1.8-0.3c0.4,0,0.7,0.1,1.1,0.1c1,1.7,2.2,3.1,3.9,3.9c0.9,0.5,1.8,0.9,2.7,1.4
					c0,0.1-0.1,0.2-0.1,0.3c-0.8,0-1.5,0-2.3-0.3c-0.4-0.2-0.9-0.2-1.3-0.4c-0.4-0.1-0.7-0.3-1-0.5c-0.1-0.1-0.2-0.1-0.3-0.1
					c-0.3,0-0.5-0.2-0.8-0.3c-1.3-0.6-2.2-1.6-3-2.7C277.3,298.7,277.1,298.4,276.9,298z"/>
				<path class="st5" d="M291.6,297.8c0-0.3,0.1-0.7,0.1-1c0-0.2,0-0.4-0.1-0.6c0-0.1-0.2-0.2-0.3-0.2c-0.1,0-0.2,0.2-0.2,0.3
					c0,0.2,0,0.4,0.1,0.6c0.1,0.4,0,0.6-0.5,0.6c0.5-0.5,0.3-1,0.1-1.6c0.2-0.1,0.5-0.2,0.7-0.3c0.3,0.6,0.3,1.3,0.2,1.9
					C291.7,297.6,291.6,297.7,291.6,297.8z"/>
				<path class="st25" d="M292.7,294.7c0.2,0.2,0.5,0.4,0.7,0.6c-0.5,0.3,0.1,0.5,0,0.9c-0.2-0.3-0.4-0.6-0.6-0.7
					C292.5,295.3,292.7,295,292.7,294.7z"/>
				<path class="st25" d="M292.2,294.2c0.1,0.1,0.2,0.2,0.3,0.3c-0.2,0.3-0.4,0.3-0.7,0.1c-0.4-0.3-0.6-0.2-0.8,0c0,0-0.1,0-0.1-0.1
					c0.1-0.2,0.1-0.4,0.3-0.5c0,0,0.3,0,0.3,0.1C291.8,294.3,292,294.4,292.2,294.2z"/>
				<path class="st13" d="M295,296.2c0.3-0.2,0.6-0.5,1-0.7c0.4-0.2,0.8-0.3,1.1-0.4c0,0,0,0.1,0,0.1
					C296.4,295.4,295.7,295.8,295,296.2z"/>
				<path class="st13" d="M297.7,294.9c0.4-0.1,0.8-0.1,1.2-0.2c0,0.1,0,0.3,0,0.4c-0.1,0.2-0.2,0.2-0.3,0.1
					c-0.1-0.1-0.3-0.1-0.4-0.2c-0.1,0-0.3,0-0.4,0.1C297.7,295.1,297.7,295,297.7,294.9z"/>
				<path class="st5" d="M289.5,297.6c-0.5,0.2-0.7,0.1-1-0.4c-0.1-0.1-0.2-0.1-0.3-0.2c0-0.1,0.1-0.2,0.1-0.3
					C288.8,297,289.2,297.3,289.5,297.6z"/>
				<path class="st5" d="M290.5,299.5c0.1-0.4,0.1-0.8,0.2-1.2c0.1-0.1,0.4-0.2,0.5-0.2c-0.4,0.2-0.6,0.6-0.6,1.1
					C290.7,299.3,290.6,299.4,290.5,299.5C290.6,299.5,290.6,299.5,290.5,299.5z"/>
				<path class="st13" d="M286.2,303.5c0-0.1,0.1-0.2,0.1-0.3c0.3,0.1,0.6,0.1,0.9,0.2c0,0.1,0,0.2,0,0.3c-0.1,0-0.1,0-0.2,0
					c-0.2,0-0.3,0-0.5,0C286.5,303.6,286.4,303.5,286.2,303.5z"/>
				<path class="st25" d="M297.7,295.2c0.1,0,0.3,0,0.4-0.1c0,0.3,0.2,0.7-0.3,0.6C297.8,295.6,297.7,295.4,297.7,295.2z"/>
				<path class="st11" d="M287.3,303.6c0-0.1,0-0.2,0-0.3c0-0.3,0.1-0.2,0.3-0.1c0.1,0.1,0.2,0.2,0.4,0.4
					C287.7,303.6,287.5,303.6,287.3,303.6z"/>
				<path class="st12" d="M281,298.1c0.2,0,0.4,0,0.6,0c0.1,0.2,0.1,0.4-0.2,0.4C281.2,298.5,281.1,298.4,281,298.1z"/>
				<path class="st5" d="M290.8,297.5c-0.2,0.3-0.8,0.4-1,0.1C290.1,297.6,290.4,297.5,290.8,297.5z"/>
				<path class="st13" d="M294.4,296.3c0.2,0,0.4-0.1,0.6-0.1c0,0.1,0,0.3-0.1,0.3c-0.1,0.1-0.2,0.1-0.4,0.2
					C294.5,296.5,294.5,296.4,294.4,296.3z"/>
				<path class="st25" d="M294,295.7c0,0.1,0.1,0.1,0.1,0.2c0.1,0.1,0.2,0.3,0.3,0.4c-0.5,0.1-0.5-0.3-0.6-0.6
					C293.8,295.6,293.8,295.6,294,295.7C293.9,295.6,293.9,295.7,294,295.7z"/>
				<path class="st11" d="M291.6,297.8c0.1-0.1,0.2-0.2,0.2-0.3c0.1,0.1,0.3,0.3,0.1,0.5C291.9,298,291.7,297.9,291.6,297.8
					C291.6,297.8,291.6,297.8,291.6,297.8z"/>
				<path class="st25" d="M282.6,296.2c0.1-0.1,0.3-0.3,0.4-0.4c0,0.2,0,0.3,0,0.6C282.9,296.2,282.8,296.2,282.6,296.2z"/>
				<path class="st25" d="M283.8,295.5c0.1-0.2,0.1-0.3,0.3-0.5c0.1,0.2,0.2,0.3,0.3,0.5C284.1,295.4,283.9,295.5,283.8,295.5
					L283.8,295.5z"/>
				<path class="st25" d="M282.3,296.7c0-0.1,0-0.1,0.1-0.2c0,0,0.1,0,0.1,0c0.1,0,0.2,0,0.3,0c0,0,0,0.1,0,0.1
					C282.7,296.7,282.5,296.7,282.3,296.7z"/>
				<path class="st12" d="M280.1,297.8c0.2,0.1,0.4,0.1,0.5,0.2C280.5,297.9,280.3,297.8,280.1,297.8z"/>
				<path class="st11" d="M290.6,299.5c0-0.1,0.1-0.2,0.1-0.3C291,299.4,290.8,299.4,290.6,299.5z"/>
				<path class="st12" d="M280.7,297.9c0.1,0,0.2,0.1,0.3,0.1C280.9,298,280.8,298,280.7,297.9z"/>
				<path class="st11" d="M290.3,300c0-0.1,0.1-0.2,0.1-0.3c0,0,0.1,0,0.1,0c0,0.1,0,0.2,0,0.3l0,0
					C290.4,299.9,290.4,299.9,290.3,300z"/>
				<path class="st11" d="M290.5,299.9c0,0,0.1,0,0.1,0.1c0,0,0,0,0,0.1C290.6,300,290.6,300,290.5,299.9
					C290.5,299.9,290.5,299.9,290.5,299.9z"/>
				<path class="st18" d="M295.9,300.5c0,0,0.1-0.1,0.1-0.1c0,0,0,0,0,0C295.9,300.5,295.9,300.5,295.9,300.5L295.9,300.5z"/>
				<path class="st11" d="M284.8,296.6c-0.1,0-0.1,0-0.2,0C284.7,296.6,284.8,296.6,284.8,296.6z"/>
				<path class="st11" d="M284.4,296.6c-0.1,0-0.1,0-0.2,0C284.3,296.6,284.3,296.6,284.4,296.6z"/>
				<path class="st11" d="M284.9,297.1c0-0.1,0-0.1,0-0.2C284.9,297,284.9,297,284.9,297.1z"/>
				<path class="st25" d="M284.5,294.9C284.4,294.9,284.4,294.9,284.5,294.9C284.4,294.9,284.4,294.9,284.5,294.9
					C284.4,294.8,284.4,294.8,284.5,294.9C284.4,294.8,284.4,294.8,284.5,294.9z"/>
				<path class="st25" d="M292.6,294.5c0.1,0.1,0.1,0.1,0.2,0.2C292.7,294.6,292.6,294.6,292.6,294.5z"/>
				<path class="st11" d="M285,297.7c0-0.1,0-0.1-0.1-0.2C285,297.6,285,297.7,285,297.7z"/>
				<path class="st11" d="M284.1,296.6c0,0.1,0,0.1,0,0.2C284.1,296.7,284.1,296.6,284.1,296.6z"/>
				<path class="st11" d="M284.9,298.9c0,0,0.1,0.1,0.1,0.1c0,0-0.1,0-0.1,0.1C284.9,299,284.9,298.9,284.9,298.9z"/>
				<path class="st12" d="M282.5,296.5c0,0-0.1,0-0.1,0c0,0,0.1-0.1,0.1-0.1C282.5,296.5,282.5,296.5,282.5,296.5z"/>
				<path class="st5" d="M290.5,299.7C290.5,299.7,290.4,299.7,290.5,299.7c0,0,0-0.1,0-0.1C290.5,299.6,290.5,299.6,290.5,299.7z"
					/>
				<path class="st12" d="M289.1,294.5C289.1,294.4,289.2,294.4,289.1,294.5C289.2,294.4,289.1,294.4,289.1,294.5z"/>
				<path class="st18" d="M295.9,300.5C295.9,300.5,295.9,300.6,295.9,300.5C295.9,300.6,295.9,300.5,295.9,300.5
					C295.9,300.5,295.9,300.5,295.9,300.5z"/>
				<path class="st11" d="M284.8,298.8c0,0,0.1,0.1,0.1,0.1C284.9,298.8,284.8,298.8,284.8,298.8z"/>
				<path class="st21" d="M295.2,283.1c0-0.1,0-0.2,0-0.3c0,0,0,0,0-0.1c0,0,0-0.1,0-0.1c0-0.1,0-0.2,0-0.2c0-0.2,0-0.4,0-0.6
					c0,0,0,0,0,0c0,0,0,0,0.1,0c0.1,0.5,0.3,1,0,1.5C295.2,283.3,295.2,283.2,295.2,283.1z"/>
				<path class="st21" d="M294.7,277.8c0.3,0.3,0.2,0.6,0.2,1C294.8,278.5,294.8,278.1,294.7,277.8z"/>
				<path class="st21" d="M295.1,280.3c0,0.3,0,0.5,0,0.8C295.2,280.8,295.1,280.6,295.1,280.3z"/>
				<path class="st20" d="M295.2,281.8c0,0.2,0,0.4,0,0.6C295.2,282.2,295.2,282,295.2,281.8z"/>
				<path class="st21" d="M295.1,279.8c0,0,0.1,0.1,0.1,0.1c0,0-0.1,0.1-0.1,0.1C295.1,280,295.1,279.9,295.1,279.8z"/>
				<path class="st20" d="M295.2,282.7c0,0,0,0.1,0,0.1C295.2,282.8,295.2,282.7,295.2,282.7z"/>
				<path class="st20" d="M295.2,281.8C295.2,281.8,295.2,281.8,295.2,281.8C295.2,281.8,295.2,281.7,295.2,281.8
					C295.2,281.7,295.2,281.8,295.2,281.8z"/>
				<path class="st21" d="M296.1,285.3c-0.4-0.5-0.9-1-0.9-1.7c0,0,0,0,0,0c0,0,0,0,0,0l0,0C295.5,284.1,295.8,284.7,296.1,285.3z"
					/>
				<path class="st12" d="M296.8,286.3c-0.2-0.3-0.4-0.6-0.6-0.9c0.1,0.1,0.3,0.2,0.4,0.3C296.7,285.9,296.7,286.1,296.8,286.3z"/>
				<path class="st12" d="M296.9,286.9c-0.1-0.2-0.1-0.4-0.2-0.6c0.4,0.1,0.4,0.5,0.4,0.9C297.1,287.1,297,287,296.9,286.9z"/>
				<path class="st6" d="M295.2,283.6L295.2,283.6C295.2,283.6,295.2,283.6,295.2,283.6c-0.1-0.1,0-0.2,0-0.3
					C295.2,283.4,295.2,283.5,295.2,283.6z"/>
				<path class="st29" d="M284.5,306.1c-0.1-0.1-0.2-0.1-0.3-0.2c-0.3-0.2-0.5-0.4-0.8-0.6c-0.5-0.3-0.9-0.6-1.4-0.9
					c0.1-0.1,0.3-0.1,0.4-0.1c0.2,0,0.4,0,0.7,0.1c0,0,0,0,0.1,0c0.2,0,0.3,0.1,0.5,0.1c0,0,0,0,0,0c0.2,0.4,0.5,0.1,0.7,0.2
					c0,0,0.1,0,0.1,0c0.2,0.1,0.3,0.3,0.5,0.3c0.7,0,1.3,0.2,2,0c0.2-0.1,0.4-0.1,0.6-0.1c-0.1,0.2-0.1,0.3-0.2,0.5
					c-0.2,0-0.4,0-0.6,0.1c-0.1,0-0.2,0-0.2,0c-0.2,0-0.3,0-0.5,0.1c0.8,0.4,1.5,0.7,2.3,0.9c0.9,0.2,1.9,0.4,2.8,0
					c0.7-0.4,1-1,1.2-1.7c0,0-0.1-0.1-0.1-0.1c-0.1,0-0.3,0.1-0.4,0.1c-0.2-0.1-0.4-0.2-0.5,0.2c-0.6,0.1-1.2,0.3-1.7,0.4
					c0.1-0.1,0.1-0.3,0.2-0.3c0.9-0.4,1.8-0.6,2.8-0.7c0.1,0,0.2-0.3,0.3-0.5c0,0,0,0,0.1,0c0.3-0.1,0.6-0.2,1-0.3
					c0.2,0,0.4,0.2,0.6,0.2c-0.4,0.5-1,0.7-1,1.5c0,0.1,0,0.2-0.1,0.2c-0.1,0.2-0.3,0.3-0.4,0.5c-0.1,0.5-0.2,1-0.3,1.5
					c0,0.3-0.1,0.4-0.4,0.4c-0.6,0-1.3,0-1.9,0.1c0,0-0.1,0-0.1,0c-0.1-0.1-0.1-0.2-0.2-0.2c-0.4-0.1-0.9-0.1-1.3-0.2
					c-0.6-0.1-1.1-0.2-1.7-0.3c-0.4-0.1-0.8-0.3-1.1-0.5c-0.4-0.2-0.7-0.4-1.1-0.5C284.8,306.1,284.6,306.1,284.5,306.1z"/>
				<path class="st30" d="M289.5,305.1c0.6-0.1,1.2-0.3,1.7-0.4c0.2-0.1,0.4-0.1,0.5-0.2c0.1,0,0.3-0.1,0.4-0.1c0,0,0.1,0.1,0.1,0.1
					c-0.3,0.7-0.5,1.4-1.2,1.7c-0.9,0.5-1.9,0.3-2.8,0c-0.8-0.2-1.5-0.5-2.3-0.9c0.2,0,0.3,0,0.5-0.1c0.1,0,0.2,0,0.2,0
					c0.2,0,0.4,0,0.6-0.1C288,305.2,288.8,305.2,289.5,305.1z"/>
				<path class="st14" d="M284.3,304.6c-0.2,0-0.5,0.3-0.7-0.2c0.1,0,0.2,0,0.3,0C284.1,304.5,284.2,304.6,284.3,304.6z"/>
				<path class="st14" d="M283.6,304.5c-0.2,0-0.3-0.1-0.5-0.1C283.3,304.4,283.4,304.4,283.6,304.5z"/>
				<path class="st31" d="M277.3,281.8c0,0,0.1,0,0.1,0c0.1,0.8,0.3,1.7,0.4,2.5c0,0.2,0.2,0.3,0.3,0.4c0,0.1-0.1,0.2-0.1,0.3
					c-0.1-0.1-0.2-0.1-0.2-0.2c-0.1-0.2-0.2-0.4-0.2-0.7C277.5,283.4,277.5,282.6,277.3,281.8z"/>
				<path class="st31" d="M278.2,284.8C278.2,284.7,278.3,284.7,278.2,284.8C278.3,284.7,278.2,284.7,278.2,284.8z"/>
				<path class="st32" d="M290,299.2c-0.6,1.1-2.4,1.4-3.3,0.5C287,298.6,289.1,298.2,290,299.2z"/>
				<path class="st24" d="M288.3,293.2c-0.5,0.1-1.1,0.1-1.6,0.2c0,0,0-0.1,0-0.1C287.2,293.3,287.8,293.2,288.3,293.2
					C288.3,293.1,288.3,293.2,288.3,293.2z"/>
				<path class="st33" d="M282.4,288.9c0.8,0.6,1.3,1.7,1,2.8c0,0.2-0.1,0.3-0.1,0.5c0,0,0,0,0,0c-0.2,0.2-0.3,0.5-0.6,0.7
					c-0.8,0.7-1.9,0.4-2.5-0.7c-0.6-0.9-0.5-2.3,0.2-3c0.1,0,0.2,0,0.3-0.1c0.4-0.1,0.8-0.2,1.2-0.4c0.1,0.2,0.1,0.4,0.2,0.5
					C282.2,289.2,282.3,289,282.4,288.9z M282,289.5c-0.4,0.1-0.6,0.5-0.5,0.9c0.1,0.4,0.4,0.7,0.8,0.7c0.3-0.1,0.6-0.5,0.5-0.9
					C282.7,289.8,282.4,289.4,282,289.5z"/>
				<path class="st17" d="M282.4,288.9c-0.1,0.1-0.1,0.2-0.2,0.4c-0.1-0.2-0.1-0.3-0.2-0.5c-0.4,0.1-0.8,0.2-1.2,0.4
					c-0.1,0-0.2,0-0.3,0.1C280.7,288.7,281.7,288.4,282.4,288.9z"/>
				<path class="st7" d="M291.8,286.1c-0.1,0-0.2,0.1-0.3,0.1c-0.1,0-0.2-0.1-0.2,0c-0.3,0.2-0.7,0.4-1,0.7
					c-0.4,0.3-0.8,0.1-0.9-0.4c0-0.2,0-0.5,0-0.7c0-0.2,0-0.3,0.1-0.5c0,0,0,0,0,0c0.1-0.1,0.1-0.1,0.2-0.2c0.1,0,0.1,0,0.2-0.1
					c0,0,0,0,0,0c0.6-0.1,1.2-0.4,1.9-0.3c0,0,0,0,0.1,0c-0.1,0.1-0.1,0.1-0.1,0.1c0.2,0.2,0.4,0.3,0.5,0.5c0,0.1-0.2,0.3-0.3,0.5
					C291.9,285.9,291.9,286,291.8,286.1z M291.8,285.5C291.8,285.5,291.8,285.5,291.8,285.5C291.8,285.5,291.8,285.5,291.8,285.5
					C291.7,285.5,291.7,285.5,291.8,285.5C291.7,285.5,291.8,285.5,291.8,285.5z"/>
				<path class="st12" d="M289.5,285.3c0,0.2-0.1,0.3-0.1,0.5c0,0.2-0.1,0.5,0,0.7c0.1,0.5,0.5,0.6,0.9,0.4c0.3-0.3,0.7-0.5,1-0.7
					c0.1,0,0.1,0,0.2,0c-0.4,0.3-0.9,0.6-1.3,0.9c-0.4,0.2-0.8,0-0.9-0.5c-0.1-0.3,0-0.7-0.1-1c0,0,0,0,0,0
					C289.3,285.4,289.4,285.4,289.5,285.3z"/>
				<path class="st12" d="M291.8,284.7c-0.7-0.1-1.3,0.1-1.9,0.3c0,0,0,0,0,0C290.3,284.5,291.3,284.4,291.8,284.7z"/>
				<path class="st12" d="M291.8,286.1c0-0.1,0.1-0.2,0.1-0.2c0.1-0.2,0.4-0.4,0.3-0.5c-0.1-0.2-0.3-0.3-0.5-0.5c0,0,0,0,0.1-0.1
					c0.4,0.1,0.6,0.3,0.6,0.7C292.5,285.9,292.2,286,291.8,286.1z"/>
				<path class="st12" d="M289.7,285.1c-0.1,0.1-0.1,0.1-0.2,0.2C289.5,285.2,289.6,285.1,289.7,285.1z"/>
				<path class="st17" d="M294,290.9c-0.4,0.6-0.9,0.8-1.6,0.7c-0.7-0.1-1.2-0.7-1.5-1.5c-0.3-0.8-0.3-1.6,0.2-2.3c0,0,0,0,0,0
					c0,0.1,0,0.2-0.1,0.3c-0.4,1.3-0.1,2.4,1,3.1c0.5,0.3,0.9,0.2,1.3-0.1C293.6,291.1,293.8,291,294,290.9
					C294,290.9,294,290.9,294,290.9z"/>
				<path class="st19" d="M294,290.9c-0.2,0.1-0.4,0.2-0.5,0.3c-0.4,0.4-0.9,0.4-1.3,0.1c-1.1-0.6-1.4-1.8-1-3.1
					c0-0.1,0-0.2,0.1-0.3c0.4-0.2,0.7-0.6,1.2-0.6c0.7-0.1,1.3,0.5,1.6,1.1c0.4,0.7,0.3,1.4,0,2.1C294,290.6,294,290.8,294,290.9z
					 M292.6,288.9c-0.1-0.4-0.4-0.8-0.7-0.7c-0.4,0-0.6,0.4-0.5,0.9c0.1,0.5,0.4,0.8,0.8,0.7C292.5,289.7,292.7,289.3,292.6,288.9z"
					/>
				<path class="st14" d="M291.8,304.5c-0.2,0.1-0.4,0.1-0.5,0.2C291.4,304.3,291.6,304.4,291.8,304.5z"/>
				<path class="st14" d="M286.7,305.4c-0.1,0-0.2,0-0.2,0C286.6,305.3,286.7,305.4,286.7,305.4z"/>
				<path class="st18" d="M282,289.5c0.3,0,0.7,0.3,0.8,0.7c0.1,0.4-0.2,0.8-0.5,0.9c-0.4,0.1-0.7-0.2-0.8-0.7
					C281.4,290,281.7,289.5,282,289.5z"/>
				<path class="st12" d="M291.8,285.5C291.8,285.5,291.7,285.5,291.8,285.5C291.7,285.5,291.7,285.5,291.8,285.5
					C291.8,285.5,291.8,285.5,291.8,285.5C291.8,285.5,291.8,285.5,291.8,285.5z"/>
				<path class="st18" d="M292.6,288.9c0.1,0.4-0.2,0.8-0.5,0.9c-0.4,0.1-0.7-0.3-0.8-0.7c-0.1-0.4,0.2-0.8,0.5-0.9
					C292.2,288.1,292.6,288.4,292.6,288.9z"/>
			</g>
			<g>
				<polygon class="st4" points="324.6,327.5 271,340.8 273.8,297.2 290.3,303.7 290.5,303.7 290.5,303.8 290.6,303.7 301.1,291.2 
									"/>
				<path class="st2" d="M270.4,341.5l2.9-45l17.1,6.7l10.8-12.9l24.2,37.5L270.4,341.5z M274.2,298l-2.7,42.1l52.2-13l-22.6-35.1
					l-10.2,12.1l-0.6,0.4l-0.2-0.3L274.2,298z"/>
			</g>
		</g>
		<g>
			<g id="Layer_8">
				<path class="st34" d="M221.9,117.2l9-39.9c0-19.4-15.8-33-15.8-33c-12.1-9.3-28.9-6.6-28.9-6.6c-27.4,7.1-28.4,38.8-28.4,38.8
					l9.5,38.8L221.9,117.2z"/>
			</g>
			<path class="st35" d="M151.8,194.1v-29.8H234v29.8l0,0c0,11.6-8.5,21.1-19,21.1h-44.2C160.3,215.1,151.8,205.7,151.8,194.1z"/>
			<path class="st36" d="M150.2,194.1v-29.8c0-0.9,0.7-1.7,1.6-1.8h82.2c0.9,0.1,1.6,0.9,1.6,1.8v29.8c0,12.6-9.2,22.9-20.6,22.9
				h-44.2C159.5,216.9,150.3,206.7,150.2,194.1z M153.4,166.2v27.9c0,10.7,7.8,19.3,17.4,19.3H215c9.6,0,17.4-8.6,17.4-19.3v-28
				L153.4,166.2z"/>
			<rect x="151.8" y="185.3" class="st36" width="82.2" height="3.5"/>
			<path class="st36" d="M234,187.1h-80.4l-1.8,6.9l4.2,13.1l9,6.9l26.8,2.2l26.1-2.8l7.1-0.8l8.1-12.2L234,187.1L234,187.1z"/>
			<path class="st37" d="M184.9,188.3L184.9,188.3L184.9,188.3c0,5.2,3.8,9.4,8.5,9.4s8.5-4.2,8.5-9.4c0-5.2-3.8-9.4-8.5-9.4
				S184.9,183,184.9,188.3"/>
			<path class="st36" d="M183.3,188.3L183.3,188.3c0-6.2,4.5-11.2,10.1-11.2s10.1,5,10.1,11.2c0,6.2-4.5,11.2-10.1,11.2
				S183.3,194.4,183.3,188.3z M193.4,180.6c-3.8,0-6.9,3.4-6.9,7.6l0,0c0,4.2,3.1,7.6,6.9,7.6c3.8,0,6.9-3.4,6.9-7.6
				C200.2,184,197.2,180.6,193.4,180.6z"/>
			<g>
				<path class="st35" d="M162.7,268.9v-37.4c0.1-0.6,0.1-1.1,0-1.7c-0.4-4.2-3.8-7.2-7.6-6.7s-6.4,4.2-6,8.4v44.9h6.8
					C159.6,276.4,162.6,273.1,162.7,268.9z"/>
				<path class="st36" d="M147.5,276.4v-45.6c0.2-5.1,4-9.2,8.7-9c4.6,0.2,8.3,4.5,8.1,9.6v37.4c0,5.1-3.8,9.3-8.4,9.3h-6.8
					C148.1,278.1,147.4,277.4,147.5,276.4z M155.9,225.7L155.9,225.7c-3,0.2-5.3,2.8-5.2,5.8v43.1h5.2c3-0.2,5.3-2.7,5.2-5.7v-37.4
					C161.2,228.5,158.9,225.9,155.9,225.7z"/>
				<path class="st36" d="M169.2,282.9c-0.9-0.1-1.6-0.8-1.6-1.8V231l0,0c-0.1-0.9,0.6-1.7,1.5-1.7c0.9-0.1,1.7,0.6,1.7,1.5
					c0,0.1,0,0.2,0,0.3v50.1C170.9,282.1,170.1,282.9,169.2,282.9L169.2,282.9z"/>
				<rect x="149.1" y="258" class="st36" width="13.6" height="3.5"/>
				<rect x="149.1" y="238.4" class="st36" width="13.6" height="3.5"/>
				<path class="st35" d="M166.3,300.7c0.2-2.6-1.7-5-4.3-5.2h-12.5c-2.5,0.2-4.3,2.3-4.3,4.8c-0.2,2.6,1.7,5,4.3,5.2H162
					C164.4,305.2,166.3,303.1,166.3,300.7z"/>
				<path class="st36" d="M149.4,307.2c-3.4-0.3-5.9-3.2-5.9-6.5c-0.1-3.8,2.5-6.9,5.9-7.1H162c3.4,0.3,5.9,3.2,5.9,6.5
					c0.1,3.8-2.5,6.9-5.9,7.1H149.4z M149.4,297.2c-1.8,0.2-3.1,1.8-2.9,3.6c0.2,1.6,1.4,2.8,2.9,2.9H162c1.8-0.2,3.1-1.8,2.9-3.6
					c-0.2-1.6-1.4-2.8-2.9-2.9H149.4z"/>
				<path class="st35" d="M178.4,334.3c0.1-3.7-2.5-6.9-5.8-7h-31.3c-3.3,0.3-5.8,3.1-5.8,6.5c-0.1,3.7,2.5,6.9,5.8,7h31.3
					C175.9,340.5,178.4,337.7,178.4,334.3z"/>
				<path class="st36" d="M140.7,342.6c-4.2-0.2-7.5-4.1-7.3-8.8c0.2-4.7,3.7-8.4,7.9-8.2h31.3c4,0.2,7.2,3.7,7.3,8.2
					c0.1,4.7-3.1,8.6-7.3,8.8H140.7z M141.2,329.1c-2.4,0.2-4.3,2.3-4.3,4.7c-0.2,2.6,1.7,4.9,4.3,5.2h31.3c2.7-0.4,4.6-2.9,4.2-5.7
					c-0.3-2.2-2-3.9-4.2-4.2H141.2z"/>
				<rect x="149.4" y="305.5" class="st35" width="12.1" height="21.9"/>
				<path class="st36" d="M147.8,327.3v-21.9l0,0c0-0.9,0.7-1.7,1.6-1.8c0,0,0,0,0,0h12.1c0.9,0.1,1.6,0.8,1.6,1.8v21.9
					c0,0.9-0.7,1.7-1.6,1.8h-12.1C148.5,329.1,147.7,328.3,147.8,327.3z M159.8,307.2H151v18.3h8.8V307.2z"/>
				<path class="st36" d="M143.3,288.3c0-0.9,0.7-1.7,1.6-1.8h21.6c1,0.1,1.7,1,1.6,2c-0.1,0.8-0.7,1.5-1.6,1.6h-21.6
					C143.9,290,143.2,289.2,143.3,288.3z"/>
				<rect x="143.5" y="340.8" class="st36" width="11.6" height="4.7"/>
				<path class="st36" d="M140.9,345.5v-4.7l0,0c0-0.9,0.7-1.7,1.6-1.8h11.6c0.9,0.1,1.6,0.8,1.6,1.8v4.7c0,0.9-0.7,1.7-1.6,1.8
					h-11.6C141.5,347.3,140.8,346.5,140.9,345.5z M152.5,342.6h-8.4v1.2h8.4V342.6z"/>
				<rect x="161.2" y="340.8" class="st36" width="11.6" height="4.7"/>
				<path class="st36" d="M158.5,345.5v-4.7l0,0c-0.1-0.9,0.6-1.7,1.6-1.8c0,0,0,0,0.1,0h11.7c0.9,0.1,1.6,0.8,1.6,1.8v4.7l0,0
					c0,0.9-0.7,1.7-1.6,1.8h-11.6C159.2,347.3,158.5,346.5,158.5,345.5z M170.2,342.6h-8.4v1.2h8.4V342.6z"/>
				<ellipse class="st35" cx="156.2" cy="282.3" rx="5.1" ry="5.6"/>
				<path class="st36" d="M155.2,289.7c-3.7,0-6.7-3.3-6.7-7.4s3-7.4,6.7-7.4c3.7,0,6.7,3.3,6.7,7.4
					C161.9,286.4,158.9,289.7,155.2,289.7z M155.2,278.4L155.2,278.4c-2.1-0.2-4.1,1.3-4.3,3.5c-0.2,2.1,1.3,4.1,3.5,4.3
					c2.1,0.2,4.1-1.3,4.3-3.5c0-0.1,0-0.3,0-0.4C158.8,280.2,157.2,278.5,155.2,278.4C155.2,278.4,155.2,278.4,155.2,278.4z"/>
				<path class="st36" d="M155.4,297.2c-0.9-0.1-1.7-0.8-1.6-1.8v-7c0-0.8,0.7-1.5,1.5-1.6c0.9,0,1.7,0.7,1.7,1.6c0,0,0,0,0,0v7.1
					C157.1,296.3,156.3,297.1,155.4,297.2z"/>
				<path class="st36" d="M166.6,226.6l-5.6-6.2h-7.6c-0.8-0.1-1.5-0.8-1.5-1.6c-0.1-0.9,0.5-1.8,1.5-1.9h8.3c0.4,0,0.8,0.2,1.1,0.5
					l6.1,6.7c0.3,0.3,0.5,0.8,0.5,1.2c0,0.9-0.7,1.7-1.6,1.8C167.3,227.1,166.9,226.9,166.6,226.6z"/>
			</g>
			<g>
				<path class="st35" d="M230.9,276.4h6.8v-44.9c0.4-4.2-2.3-7.9-6-8.4s-7.1,2.5-7.6,6.7c-0.1,0.6-0.1,1.1,0,1.7v37.4
					C224.1,273.1,227.1,276.4,230.9,276.4z"/>
				<path class="st36" d="M237.7,278.2h-6.8c-4.6,0-8.4-4.2-8.4-9.3v-37.4c-0.2-5.1,3.5-9.5,8.1-9.6c4.6-0.2,8.5,3.9,8.7,9v45.6
					C239.3,277.4,238.6,278.1,237.7,278.2z M225.7,231.5v37.4c-0.1,3,2.2,5.6,5.2,5.7h5.2v-43.1c0.1-3-2.2-5.6-5.2-5.8l0,0
					C227.8,225.9,225.5,228.5,225.7,231.5z"/>
				<path class="st36" d="M217.5,282.9c-0.9,0-1.6-0.8-1.6-1.8V231c0-0.1,0-0.2,0-0.3c0.1-0.9,0.8-1.5,1.7-1.5
					c0.9,0.1,1.5,0.8,1.5,1.7l0,0v50.1C219.2,282.1,218.5,282.9,217.5,282.9L217.5,282.9z"/>
				<path class="st36" d="M237.7,259.8h-13.5"/>
				<rect x="224.1" y="258" class="st36" width="13.6" height="3.5"/>
				<path class="st36" d="M237.7,240.2h-13.5"/>
				<rect x="224.1" y="238.4" class="st36" width="13.6" height="3.5"/>
				<path class="st35" d="M224.8,305.4h12.5c2.6-0.3,4.5-2.6,4.3-5.2c0-2.5-1.9-4.5-4.3-4.8h-12.5c-2.6,0.3-4.6,2.6-4.3,5.2
					C220.5,303.1,222.3,305.2,224.8,305.4z"/>
				<path class="st36" d="M224.8,307.2c-3.4-0.1-6-3.3-5.9-7.1c0-3.4,2.5-6.2,5.9-6.5h12.5c3.4,0.2,6,3.3,5.9,7.1
					c0,3.4-2.5,6.2-5.9,6.5H224.8z M224.8,297.2c-1.6,0.2-2.8,1.4-2.9,2.9c-0.2,1.8,1.1,3.4,2.9,3.6h12.5c1.6-0.2,2.8-1.4,2.9-2.9
					c0.2-1.8-1.1-3.4-2.9-3.6H224.8z"/>
				<path class="st35" d="M214.2,340.8h31.3c3.3-0.1,6-3.3,5.8-7c0-3.3-2.5-6.1-5.8-6.5h-31.3c-3.3,0.1-6,3.3-5.8,7
					C208.3,337.7,210.9,340.5,214.2,340.8z"/>
				<path class="st36" d="M214.2,342.6c-4.2-0.2-7.5-4.1-7.3-8.8c0.1-4.5,3.3-8,7.3-8.2h31.3c4.2-0.2,7.7,3.5,7.9,8.2
					c0.2,4.7-3.1,8.6-7.3,8.8H214.2z M214.2,329.1c-2.2,0.3-3.9,2-4.2,4.2c-0.4,2.7,1.5,5.3,4.2,5.7h31.3c2.6-0.3,4.5-2.6,4.3-5.2
					c0-2.4-1.8-4.5-4.3-4.7H214.2z"/>
				<rect x="225.3" y="305.5" class="st35" width="12.1" height="21.9"/>
				<path class="st36" d="M237.3,329.1h-12.1c-0.9-0.1-1.6-0.8-1.6-1.8v-21.9c0-0.9,0.7-1.7,1.6-1.8h12.1c0,0,0,0,0,0
					c0.9,0,1.6,0.8,1.6,1.8l0,0v21.9C239,328.3,238.3,329.1,237.3,329.1z M226.9,325.6h8.8v-18.3h-8.8V325.6z"/>
				<path class="st36" d="M241.9,290.1h-21.6c-0.8-0.1-1.5-0.7-1.6-1.6c-0.1-1,0.6-1.9,1.6-2h21.6c0.9,0.1,1.6,0.8,1.6,1.8
					C243.5,289.2,242.8,290,241.9,290.1z"/>
				<rect x="231.6" y="340.8" class="st36" width="11.6" height="4.7"/>
				<path class="st36" d="M244.3,347.3h-11.6c-0.9-0.1-1.6-0.8-1.6-1.8v-4.7c0-0.9,0.7-1.7,1.6-1.8h11.6c0.9,0.1,1.6,0.8,1.6,1.8
					l0,0v4.7C245.9,346.5,245.2,347.3,244.3,347.3z M234.2,343.8h8.4v-1.2h-8.4V343.8z"/>
				<rect x="213.9" y="340.8" class="st36" width="11.6" height="4.7"/>
				<path class="st36" d="M226.6,347.3h-11.6c-0.9-0.1-1.6-0.8-1.6-1.8l0,0v-4.7c-0.1-0.9,0.7-1.7,1.6-1.8h11.7c0,0,0,0,0.1,0
					c0.9,0.1,1.6,0.9,1.6,1.8l0,0v4.7C228.2,346.5,227.5,347.3,226.6,347.3z M216.5,343.8h8.4v-1.2h-8.4V343.8z"/>
				<ellipse class="st35" cx="230.5" cy="282.3" rx="5.1" ry="5.6"/>
				<path class="st36" d="M224.9,282.3c0-4.1,3-7.4,6.7-7.4s6.7,3.3,6.7,7.4s-3,7.4-6.7,7.4S224.9,286.4,224.9,282.3z M231.6,278.4
					c-2,0.1-3.6,1.8-3.5,3.9c0,0.1,0,0.3,0,0.4c0.2,2.1,2.1,3.7,4.3,3.5c2.1-0.2,3.7-2.1,3.5-4.3
					C235.6,279.7,233.7,278.2,231.6,278.4L231.6,278.4C231.6,278.4,231.6,278.4,231.6,278.4z"/>
				<path class="st36" d="M229.7,295.4v-7.1c0,0,0,0,0,0c0-0.9,0.8-1.7,1.7-1.6c0.8,0.1,1.5,0.8,1.5,1.6v7c0,0.9-0.7,1.7-1.6,1.8
					C230.4,297.1,229.7,296.3,229.7,295.4z"/>
				<path class="st36" d="M219,227.1c-0.9-0.1-1.6-0.8-1.6-1.8c0-0.5,0.2-0.9,0.5-1.2l6.1-6.7c0.3-0.3,0.7-0.5,1.1-0.5h8.3
					c0.9,0.1,1.6,1,1.5,1.9c0,0.8-0.6,1.5-1.5,1.6h-7.6l-5.6,6.2C219.9,226.9,219.5,227.1,219,227.1z"/>
			</g>
			<rect x="233.1" y="185.9" class="st36" width="25.7" height="14.6"/>
			<g>
				<g>
					<path class="st36" d="M275.8,244.1l-2.3-8.6c-0.1-0.3,0.1-0.6,0.4-0.7c0.3-0.1,0.6,0.1,0.7,0.4c0,0,0,0,0,0l2.3,8.6l0,0
						c0.1,0.3,0,0.6-0.3,0.7s-0.6,0-0.7-0.3C275.8,244.2,275.8,244.1,275.8,244.1z"/>
					<path class="st38" d="M276.4,252.8l-1.8-6.7c-0.3-0.9,0.2-1.8,1.1-2.1l1.3-0.3c0.9-0.2,1.8,0.4,2,1.3l1.8,6.7"/>
					<path class="st36" d="M276.5,253.5c-0.3,0.1-0.6-0.1-0.7-0.5l-1.8-6.7c-0.3-1.3,0.3-2.5,1.5-2.8l1.3-0.3
						c1.1-0.3,2.3,0.5,2.7,1.7l1.8,6.7l0,0c0.1,0.3,0,0.6-0.3,0.7c-0.3,0.1-0.6,0-0.7-0.3c0,0,0-0.1,0-0.1l-1.8-6.7l0,0
						c-0.1-0.6-0.7-0.9-1.3-0.8l-1.3,0.3c-0.6,0.2-0.9,0.8-0.7,1.3l1.8,6.7l0,0C277,253,276.9,253.4,276.5,253.5L276.5,253.5z"/>
					<path class="st37" d="M276.4,252.9c0.4,1.3,1.6,2.1,2.8,1.8l0,0c1.2-0.3,1.9-1.6,1.5-3c-0.4-1.3-1.6-2.1-2.8-1.8
						C276.7,250.2,276,251.5,276.4,252.9"/>
					<path class="st36" d="M275.8,253c-0.4-1.7,0.4-3.3,1.9-3.7c1.5-0.4,3.1,0.6,3.5,2.3c0.4,1.7-0.4,3.3-1.9,3.7
						C277.8,255.7,276.3,254.7,275.8,253z M278.1,250.5c-0.9,0.3-1.4,1.3-1.1,2.2l0,0c0.3,0.9,1.3,1.3,2.2,1c0.9-0.3,1.3-1.3,1-2.2
						C279.8,250.7,278.9,250.3,278.1,250.5z"/>
				</g>
				<g>
					<path class="st36" d="M270.4,243.7l0.5-8.9c0-0.3,0.3-0.5,0.6-0.6c0.3,0,0.6,0.3,0.6,0.6c0,0,0,0,0,0l-0.5,8.9l0,0
						c0,0.3-0.2,0.6-0.5,0.6c-0.3,0-0.6-0.2-0.6-0.5C270.4,243.8,270.4,243.7,270.4,243.7z"/>
					<path class="st38" d="M268.2,252.2l0.4-6.9c0-0.9,0.7-1.7,1.7-1.7l1.3,0.1c0.9,0.1,1.6,0.9,1.5,1.8l-0.4,6.9"/>
					<path class="st36" d="M268.2,252.9c-0.3,0-0.6-0.3-0.5-0.7l0.4-6.9c0.1-1.3,1.1-2.3,2.3-2.3l1.3,0.1c1.2,0.1,2.1,1.2,2,2.5
						l-0.4,6.9l0,0c0,0.3-0.2,0.6-0.6,0.6c-0.3,0-0.6-0.2-0.6-0.6c0,0,0-0.1,0-0.1l0.4-6.9l0,0c0.1-0.6-0.4-1.1-0.9-1.2l-1.3-0.1
						c-0.6,0-1.1,0.5-1.1,1.1l-0.4,6.9l0,0C268.8,252.6,268.5,252.9,268.2,252.9L268.2,252.9z"/>
					<path class="st37" d="M268.2,252.2c-0.1,1.4,0.9,2.5,2.1,2.6l0,0c1.2,0.1,2.3-1,2.4-2.4c0.1-1.4-0.9-2.5-2.1-2.6
						C269.4,249.8,268.3,250.9,268.2,252.2"/>
					<path class="st36" d="M267.7,252.2c0.1-1.7,1.4-3,3-3c1.5,0.1,2.7,1.5,2.6,3.3s-1.4,3-3,3C268.8,255.4,267.6,253.9,267.7,252.2
						z M270.6,250.5c-1,0-1.8,0.8-1.8,1.8l0,0c0,0.9,0.8,1.6,1.8,1.6c0.9,0,1.6-0.8,1.6-1.8C272.1,251.2,271.4,250.5,270.6,250.5z"
						/>
				</g>
				<g>
					<path class="st36" d="M281.2,240.9c0.1,0.3,0,0.6-0.3,0.8c-0.3,0.1-0.6,0-0.8-0.3l0,0l-4.8-7.5c0,0,0,0,0,0
						c-0.2-0.3-0.1-0.6,0.2-0.8c0.3-0.1,0.6,0,0.8,0.2l4.8,7.5C281.2,240.9,281.2,240.9,281.2,240.9z"/>
					<path class="st38" d="M283.4,249.6l-3.7-5.8c-0.5-0.7-0.4-1.8,0.4-2.3l1.1-0.7c0.8-0.5,1.8-0.2,2.3,0.6l3.7,5.8"/>
					<path class="st36" d="M287.6,247.7c-0.3,0.2-0.6,0.1-0.8-0.2l0,0l-3.7-5.8c-0.3-0.5-0.9-0.7-1.4-0.4l-1.1,0.7
						c-0.5,0.3-0.6,1-0.2,1.5l0,0l3.7,5.8c0,0,0,0.1,0,0.1c0.1,0.3,0,0.6-0.2,0.8s-0.6,0-0.8-0.2l0,0l-3.7-5.8
						c-0.7-1.1-0.5-2.5,0.5-3.2l1.1-0.7c1-0.6,2.4-0.3,3.1,0.8l3.7,5.8C287.9,247.1,287.8,247.5,287.6,247.7L287.6,247.7z"/>
					<path class="st37" d="M287.2,247.2c-0.7-1.2-2.2-1.5-3.2-0.9c-1,0.7-1.3,2.1-0.5,3.3s2.2,1.6,3.2,0.9l0,0
						C287.7,249.8,288,248.3,287.2,247.2"/>
					<path class="st36" d="M287,251c-1.3,0.8-3.1,0.4-4-1.1c-0.9-1.4-0.6-3.3,0.7-4.1c1.3-0.8,3.1-0.3,4,1.1
						C288.6,248.3,288.3,250.2,287,251z M283.7,249c0.4,0.8,1.4,1.2,2.3,0.7s1.2-1.4,0.7-2.3l0,0c-0.5-0.8-1.6-1.1-2.4-0.7
						C283.6,247.3,283.4,248.2,283.7,249z"/>
				</g>
				<path class="st37" d="M264.3,180.3l7.2,27.1"/>
				<path class="st35" d="M264.1,233.8l-11.9-44.7l0,0c-0.9-3.3,0.8-6.7,3.8-7.4l5.7-1.5c3-0.8,6.1,1.3,7,4.6l11.9,44.7l0,0
					c0.9,3.3-0.8,6.6-3.8,7.4l-5.7,1.5C268.1,239.2,265,237.1,264.1,233.8z"/>
				<path class="st36" d="M263.1,234.1l-11.9-44.7c-1-3.9,1-7.9,4.5-8.8l5.7-1.5c3.5-0.9,7.2,1.5,8.3,5.4l11.9,44.7
					c1,3.9-1,7.9-4.5,8.8l-5.7,1.5C267.8,240.4,264.1,238,263.1,234.1z M256.3,182.8c-2.4,0.6-3.8,3.4-3.1,6.1l11.9,44.7
					c0.7,2.7,3.3,4.4,5.7,3.7l5.7-1.5c2.4-0.6,3.8-3.4,3.1-6.1l-11.9-44.7c-0.7-2.7-3.3-4.4-5.7-3.7L256.3,182.8z"/>
				<path class="st37" d="M266.7,227.9L266.7,227.9L266.7,227.9c0.7,2.7,3.2,4.3,5.6,3.7l0,0c2.4-0.6,3.8-3.3,3.1-6
					c-0.7-2.7-3.2-4.3-5.7-3.7C267.3,222.5,265.9,225.2,266.7,227.9"/>
				<path class="st36" d="M265.7,228.2L265.7,228.2c-0.9-3.3,0.8-6.6,3.8-7.4c3-0.8,6.1,1.2,6.9,4.5c0.9,3.3-0.8,6.6-3.8,7.4
					C269.6,233.5,266.5,231.5,265.7,228.2z M267.6,227.7L267.6,227.7c0.7,1.8,2.7,2.7,4.5,2c1.8-0.7,2.7-2.7,2-4.5
					c-0.6-1.7-2.5-2.6-4.2-2.1C268.1,223.7,267,225.7,267.6,227.7L267.6,227.7z"/>
				<path class="st36" d="M255.5,201.5c-0.6,0.1-1.2-0.3-1.3-1c-0.1-0.5,0.2-1,0.7-1.2l16.5-4.4c0.6-0.1,1.2,0.3,1.3,1
					c0.1,0.5-0.2,1-0.7,1.2L255.5,201.5z"/>
				<path class="st36" d="M258.4,212.6c-0.6,0.1-1.2-0.4-1.3-1c-0.1-0.5,0.2-1,0.7-1.2l16.5-4.4c0.6-0.1,1.2,0.3,1.3,0.9
					c0.1,0.6-0.2,1.1-0.7,1.3L258.4,212.6z"/>
			</g>
			<rect x="125.6" y="185.9" class="st36" width="25.7" height="14.6"/>
			<rect x="165" y="149.7" class="st35" width="58.5" height="14.6"/>
			<path class="st36" d="M163.4,147.9h61.7v18.1h-61.7V147.9z M221.9,151.5h-55.3v11h55.3V151.5z"/>
			<path class="st39" d="M169.4,142.4c0-0.9,0.7-1.7,1.6-1.8h45.6c1,0.1,1.7,0.9,1.6,1.9c-0.1,0.9-0.8,1.6-1.6,1.6H171
				C170.1,144.2,169.4,143.4,169.4,142.4z"/>
			<path class="st37" d="M221.7,117.2h-55l-3.7-14.5l4.9-2.1h57.3L221.7,117.2z"/>
			<path class="st38" d="M166.8,126.6v-9.3h54.9v9.3c0,4.7-3.5,8.6-7.8,8.6h-39.4C170.3,135.1,166.8,131.3,166.8,126.6z"/>
			<path class="st36" d="M174.6,137c-5.2,0-9.4-4.7-9.3-10.4v-11.1h58.1v11.2c0,5.7-4.2,10.4-9.4,10.4H174.6z M168.4,119.1v7.6
				c0,3.8,2.8,6.8,6.2,6.8H214c3.4,0,6.2-3.1,6.2-6.8v-7.6H168.4z"/>
			<path class="st39" d="M184.7,100.7c-2.3-1.2-4.5-2.7-6.4-4.5c-10.1-10-11.1-27.1-2.1-38.4c4.5-5.6,32.7-5.2,37.2,0.7
				c1.5,1.9,2.6,4,3.5,6.3c5.4,13.8-0.2,29.8-12.6,35.8"/>
			<path class="st36" d="M205.9,102.5c-0.7,0-1.2-0.4-1.5-1c-0.4-0.9-0.1-1.9,0.8-2.4c11.9-6.5,16.9-22.4,11.1-35.7
				c-0.4-0.9-0.9-1.8-1.4-2.7c-0.5-0.8-0.3-1.9,0.5-2.5c0.7-0.5,1.6-0.3,2.1,0.4c0,0.1,0.1,0.1,0.1,0.2c0.6,1,1.1,2,1.5,3.1
				c6.6,15,0.9,33.1-12.6,40.4c-0.2,0.1-0.5,0.2-0.7,0.2L205.9,102.5z"/>
			<path class="st36" d="M182.5,102.1c-1.4-0.8-2.7-1.6-3.9-2.6c-12.1-9.9-14.7-28.8-5.9-42.2c0.4-0.7,1.4-0.9,2.1-0.5
				c0.1,0,0.1,0.1,0.2,0.1c0.7,0.6,0.9,1.7,0.3,2.5c-7.8,11.9-5.5,28.5,5.2,37.3c1.1,0.9,2.2,1.7,3.4,2.3c0.6,0.3,0.9,0.9,0.9,1.6
				c0,0.9-0.7,1.7-1.6,1.8C183,102.3,182.8,102.3,182.5,102.1z"/>
			<path class="st36" d="M156.2,78.3v-0.5c0-23.3,17.1-42.2,38.1-42.2s38,18.9,38,42.3v0.2L223,119h-57.4L156.2,78.3z M229.1,77.7
				c-0.3-20.9-15.5-37.7-34.3-38c-19.3-0.4-35.1,16.7-35.4,38l8.6,37.7h52.5L229.1,77.7z"/>
			<path class="st36" d="M227.9,96.4L227.9,96.4c-1-0.1-1.7-1-1.6-2c0.1-0.8,0.7-1.5,1.6-1.6h3.8c2.3-0.1,4-2.1,3.9-4.3V72.9
				c0.1-2.3-1.6-4.2-3.9-4.3h-1.6c-1-0.2-1.6-1.1-1.5-2.1c0.1-0.8,0.7-1.3,1.5-1.5h1.6c3.9,0,7.1,3.5,7.1,7.9v15.6
				c0,4.4-3.2,7.9-7.1,7.9L227.9,96.4L227.9,96.4z"/>
			<path class="st36" d="M149.6,88.5V72.9c0-4.4,3.2-7.9,7.1-7.9h1.6c0.8,0.1,1.5,0.8,1.5,1.6c0.1,0.9-0.5,1.8-1.5,1.9h-1.6
				c-2.3,0.2-4,2.1-3.9,4.3v15.6c-0.1,2.3,1.6,4.2,3.9,4.3h3.8c0.8,0.1,1.5,0.8,1.5,1.6c0.1,0.9-0.5,1.8-1.5,1.9h-3.7
				C152.8,96.5,149.7,92.9,149.6,88.5z"/>
			<path class="st36" d="M229.2,72.4c-18.8-21.6-49.9-22.4-69.5-1.7l-0.1,0.1c-0.6,0.6-1.5,0.6-2.1,0c-0.1-0.1-0.1-0.1-0.2-0.2
				c-0.6-0.8-0.5-1.8,0.2-2.5c20.9-22,53.9-21.3,74,1.8l0,0c0.6,0.7,0.6,1.8,0,2.5c-0.3,0.3-0.7,0.5-1.1,0.5
				C229.9,72.9,229.5,72.7,229.2,72.4z"/>
			<path class="st36" d="M161.7,100.8c-0.1-0.9,0.5-1.8,1.5-1.9h62.2c0.8,0.1,1.5,0.8,1.5,1.6c0.1,0.9-0.5,1.8-1.5,1.9h-62.2
				C162.3,102.3,161.7,101.6,161.7,100.8z"/>
			<path class="st35" d="M181.5,66.7L181.5,66.7c0-3.9,2.9-7.1,6.4-7.1l0,0c3.5,0,6.4,3.1,6.4,7.1c0,3.9-2.9,7.1-6.4,7.1
				C184.3,73.9,181.5,70.7,181.5,66.7"/>
			<path class="st35" d="M177,77.3c-0.1-1.5,1.1-2.8,2.6-2.9l0,0c1.6-0.2,3,1,3.2,2.6c0.2,1.6-1,3-2.6,3.2c-1.6,0.2-3-1-3.2-2.6
				C177,77.5,177,77.4,177,77.3"/>
			<path class="st36" d="M172.2,113.3L172.2,113.3c-1-0.1-1.7-1-1.5-2c0.1-0.8,0.7-1.4,1.5-1.5c0.7,0,1-0.5,1.8-1.8
				c0.7-1.3,2.1-3.5,4.5-3.5c2.4,0,3.7,2.1,4.5,3.4c0.8,1.3,1.2,1.8,1.8,1.8s1-0.5,1.8-1.8c0.8-1.3,2.1-3.5,4.5-3.5
				c2.4,0,3.7,2.1,4.5,3.4s1.2,1.8,1.8,1.8c0.6,0,1-0.5,1.8-1.8s2-3.5,4.5-3.5s3.6,2,4.5,3.5c0.9,1.5,1.2,1.8,1.8,1.8
				c0.7,0,0.9-0.4,1.8-1.8c0.9-1.4,2-3.4,4.5-3.4c0.8,0.1,1.5,0.8,1.5,1.6c0.1,0.9-0.5,1.8-1.5,1.9c-0.7,0-1,0.4-1.8,1.8
				c-0.9,1.5-2.1,3.4-4.5,3.4c-2.4,0-3.7-2.1-4.5-3.4c-0.8-1.3-1.2-1.9-1.8-1.9c-0.7,0-1,0.4-1.8,1.9c-0.9,1.4-2.1,3.4-4.5,3.4
				s-3.7-2.1-4.5-3.4c-0.8-1.3-1.2-1.8-1.8-1.8c-0.7,0-1,0.4-1.8,1.9s-2,3.4-4.5,3.4c-2.4,0-3.7-2.1-4.5-3.4
				c-0.8-1.3-1.2-1.8-1.8-1.8c-0.7,0-1,0.4-1.8,1.9C175.8,111.4,174.6,113.3,172.2,113.3L172.2,113.3z"/>
			<g>
				<g>
					<path class="st36" d="M99.9,142.4c-0.1-0.3,0-0.6,0.3-0.8c0.3-0.1,0.6,0,0.8,0.3l0,0l4.8,7.6c0,0,0,0,0,0
						c0.2,0.3,0.1,0.6-0.2,0.8c-0.3,0.1-0.6,0-0.8-0.2l-4.8-7.6C100,142.5,100,142.4,99.9,142.4z"/>
					<path class="st38" d="M97.7,133.6l3.8,5.9c0.5,0.8,0.4,1.8-0.4,2.3l-1.1,0.7c-0.8,0.5-1.8,0.2-2.3-0.6l-3.8-5.9"/>
					<path class="st36" d="M93.6,135.5c0.3-0.2,0.7-0.1,0.8,0.2l0,0l3.8,5.9c0.3,0.5,0.9,0.7,1.5,0.4l1.1-0.7c0.5-0.3,0.6-1,0.3-1.5
						l0,0l-3.8-5.9c0,0,0-0.1,0-0.1c-0.1-0.3,0-0.6,0.2-0.8c0.3-0.1,0.6,0,0.8,0.2l0,0l3.8,5.9c0.7,1.1,0.5,2.5-0.5,3.2l-1.1,0.7
						c-1,0.6-2.4,0.3-3.1-0.9l-3.8-5.9C93.2,136.1,93.3,135.7,93.6,135.5L93.6,135.5z"/>
					<path class="st37" d="M93.9,136.1c0.7,1.2,2.2,1.6,3.3,0.9s1.3-2.2,0.5-3.3c-0.7-1.2-2.2-1.6-3.2-0.9l0,0
						C93.4,133.4,93.1,134.9,93.9,136.1"/>
					<path class="st36" d="M94.1,132.2c1.3-0.8,3.1-0.3,4.1,1.1c0.9,1.5,0.6,3.3-0.7,4.2c-1.3,0.8-3.1,0.3-4.1-1.1
						C92.5,134.9,92.8,133,94.1,132.2z M97.4,134.2c-0.4-0.8-1.4-1.2-2.3-0.8c-0.8,0.4-1.2,1.4-0.8,2.3l0,0c0.5,0.9,1.6,1.2,2.4,0.7
						C97.5,136,97.8,135,97.4,134.2z"/>
				</g>
				<g>
					<path class="st36" d="M96.5,146.7c-0.2-0.2-0.2-0.6,0-0.8s0.6-0.2,0.8,0l0,0l6.9,5.7c0,0,0,0,0,0c0.2,0.2,0.3,0.6,0,0.8
						c-0.2,0.2-0.6,0.2-0.8,0l-6.9-5.7C96.6,146.8,96.5,146.8,96.5,146.7z"/>
					<path class="st38" d="M91.7,139.1l5.4,4.4c0.7,0.6,0.9,1.6,0.4,2.3l-0.9,1c-0.6,0.7-1.7,0.7-2.4,0.1l-5.4-4.4"/>
					<path class="st36" d="M88.3,142.2c0.2-0.2,0.6-0.3,0.9,0l0,0l5.4,4.4c0.4,0.4,1.1,0.4,1.5-0.1l0.9-1c0.4-0.5,0.3-1.1-0.2-1.5
						l0,0l-5.4-4.4c0,0,0,0-0.1-0.1c-0.2-0.2-0.2-0.6,0-0.8s0.6-0.2,0.8,0l0,0l5.4,4.4c1,0.8,1.2,2.3,0.5,3.2l-0.9,1
						c-0.8,0.9-2.2,1-3.2,0.1l-5.4-4.4C88.2,142.8,88.1,142.4,88.3,142.2L88.3,142.2z"/>
					<path class="st37" d="M88.8,142.6c1.1,0.9,2.6,0.8,3.4-0.1c0.8-1,0.6-2.5-0.5-3.3s-2.6-0.8-3.4,0.1l0,0
						C87.5,140.2,87.7,141.7,88.8,142.6"/>
					<path class="st36" d="M87.8,138.8c1-1.2,2.9-1.3,4.2-0.2c1.3,1.1,1.6,3,0.6,4.2c-1,1.2-2.9,1.3-4.2,0.2
						C87.1,141.9,86.8,140,87.8,138.8z M91.6,139.7c-0.7-0.7-1.7-0.7-2.4,0c-0.7,0.7-0.7,1.7,0,2.4l0,0c0.7,0.7,1.9,0.6,2.5-0.1
						C92.2,141.3,92.2,140.4,91.6,139.7z"/>
				</g>
				<g>
					<path class="st36" d="M106.1,140.7l2.3,8.7c0.1,0.3-0.1,0.6-0.4,0.7c-0.3,0.1-0.6-0.1-0.7-0.4c0,0,0,0,0,0L105,141l0,0
						c-0.1-0.3,0-0.6,0.3-0.7c0.3-0.1,0.6,0,0.7,0.3C106.1,140.7,106.1,140.7,106.1,140.7z"/>
					<path class="st38" d="M105.5,131.9l1.8,6.7c0.3,0.9-0.2,1.8-1.1,2.1l-1.3,0.3c-0.9,0.2-1.8-0.4-2-1.3l-1.8-6.7"/>
					<path class="st36" d="M105.3,131.3c0.3-0.1,0.6,0.1,0.7,0.5l1.8,6.7c0.3,1.3-0.3,2.6-1.5,2.9l-1.3,0.3
						c-1.2,0.3-2.4-0.5-2.7-1.8l-1.8-6.7l0,0c-0.1-0.3,0.1-0.6,0.4-0.7c0.3-0.1,0.6,0.1,0.7,0.4c0,0,0,0.1,0,0.1l1.8,6.7l0,0
						c0.1,0.6,0.7,1,1.3,0.8l1.3-0.3c0.6-0.2,0.9-0.8,0.7-1.3l-1.8-6.7l0,0C104.8,131.7,105,131.4,105.3,131.3L105.3,131.3z"/>
					<path class="st37" d="M105.5,131.9c-0.4-1.3-1.6-2.2-2.8-1.9l0,0c-1.2,0.3-1.9,1.7-1.5,3c0.4,1.3,1.6,2.2,2.8,1.9
						S105.9,133.2,105.5,131.9"/>
					<path class="st36" d="M106.1,131.7c0.4,1.7-0.4,3.4-1.9,3.8c-1.5,0.4-3.1-0.6-3.5-2.3c-0.4-1.7,0.4-3.4,1.9-3.8
						S105.6,130.1,106.1,131.7z M103.8,134.3c0.9-0.3,1.5-1.3,1.2-2.2l0,0c-0.3-0.9-1.3-1.3-2.2-1c-0.9,0.3-1.3,1.3-1,2.2
						C102.1,134,103,134.5,103.8,134.3z"/>
				</g>
				<path class="st37" d="M124.4,170.8l15.3,23.9"/>
				<path class="st35" d="M101,149.9l5-3.2c2.6-1.7,6.3-0.7,8.1,2.2l0,0l25.1,39.3c1.9,2.9,1.3,6.7-1.4,8.3l-5,3.2
					c-2.6,1.7-6.3,0.7-8.1-2.2l0,0l-25.1-39.3C97.8,155.3,98.4,151.6,101,149.9z"/>
				<path class="st36" d="M100.4,148.9l5-3.2c3.1-2,7.4-0.8,9.6,2.7l25.1,39.3c2.2,3.5,1.5,7.9-1.6,9.9l-5,3.2
					c-3.1,2-7.4,0.8-9.6-2.7l-25.1-39.3C96.6,155.4,97.3,150.9,100.4,148.9z M137.3,195.6c2.1-1.4,2.7-4.4,1.1-6.8l-25.1-39.3
					c-1.5-2.4-4.5-3.2-6.7-1.8l-5,3.2c-2.1,1.4-2.7,4.4-1.1,6.8l25.1,39.3c1.5,2.4,4.5,3.2,6.7,1.8L137.3,195.6z"/>
				<path class="st37" d="M105.8,160.3c1.5,2.4,4.4,3.2,6.6,1.8c2.1-1.4,2.6-4.4,1.1-6.7c-1.5-2.4-4.4-3.2-6.6-1.8l0,0
					C104.8,155,104.3,158,105.8,160.3L105.8,160.3L105.8,160.3"/>
				<path class="st36" d="M106.3,152.6c2.6-1.7,6.2-0.7,8.1,2.2c1.9,2.9,1.2,6.6-1.4,8.2c-2.6,1.7-6.2,0.7-8.1-2.2l0,0
					C103.1,158,103.7,154.3,106.3,152.6z M106.7,159.8c1,1.8,3.3,2.4,5.1,1.4c1.5-1,2.1-3,1.3-4.6c-0.9-1.8-3-2.5-4.8-1.6
					C106.5,155.9,105.8,158,106.7,159.8L106.7,159.8L106.7,159.8z"/>
				<path class="st36" d="M132.4,177.4c0.5-0.2,1.1-0.1,1.4,0.3c0.4,0.5,0.3,1.2-0.2,1.6l-14.5,9.3c-0.5,0.2-1.1,0.1-1.4-0.3
					c-0.4-0.5-0.3-1.2,0.2-1.6L132.4,177.4z"/>
				<path class="st36" d="M126.1,167.6c0.5-0.3,1.1-0.1,1.5,0.3c0.4,0.5,0.3,1.2-0.2,1.6l-14.5,9.3c-0.5,0.2-1,0.1-1.4-0.3
					c-0.4-0.5-0.4-1.2,0.1-1.6L126.1,167.6z"/>
			</g>
		</g>
	</g>
	<line class="st40" x1="158.6" y1="65" x2="158.6" y2="29.5"/>
	<line class="st41" x1="230.6" y1="65" x2="230.6" y2="29.5"/>
</g>
</svg>
